<?xml version="1.0" standalone="no"?>
<!DOCTYPE svg PUBLIC "-//W3C//DTD SVG 20010904//EN"
 "http://www.w3.org/TR/2001/REC-SVG-20010904/DTD/svg10.dtd">
<svg version="1.0" xmlns="http://www.w3.org/2000/svg"
 width="260.000000pt" height="260.000000pt" viewBox="0 0 260.000000 260.000000"
 preserveAspectRatio="xMidYMid meet">
<metadata>
Created by potrace 1.11, written by Peter Selinger 2001-2013
</metadata>
<g transform="translate(0.000000,260.000000) scale(0.100000,-0.100000)"
fill="#000000" stroke="none">
<path d="M1215 2139 c-289 -30 -543 -209 -670 -473 -58 -121 -75 -188 -82
-327 -20 -405 235 -753 632 -860 63 -17 108 -22 210 -22 157 0 246 21 380 88
99 50 221 143 219 167 -1 8 -63 88 -139 176 l-139 161 -48 -45 c-27 -25 -74
-57 -106 -72 -51 -24 -69 -27 -167 -27 -98 0 -116 3 -167 27 -161 75 -261 262
-230 429 25 138 98 236 220 296 73 36 80 38 177 38 94 0 105 -2 168 -33 37
-19 90 -56 117 -83 27 -27 51 -49 54 -49 13 0 287 334 282 345 -2 7 -35 38
-73 68 -190 154 -404 220 -638 196z"/>
</g>
</svg>
