<?xml version="1.0" encoding="utf-8"?>
<!DOCTYPE svg PUBLIC "-//W3C//DTD SVG 1.1//EN" "http://www.w3.org/Graphics/SVG/1.1/DTD/svg11.dtd">
<svg version="1.1" id="Layer_1" xmlns="http://www.w3.org/2000/svg" xmlns:xlink="http://www.w3.org/1999/xlink" x="0px" y="0px"
	 width="86.8px" height="100px" viewBox="-49 51 86.8 100" style="enable-background:new -49 51 86.8 100;" xml:space="preserve">
<style type="text/css">
	.st0{fill:#D31E49;}
</style>
<path class="st0" d="M1,51c-27.5,0-50,22.5-50,50s22.5,50,50,50c13.8,0,26.6-5.4,36-15.3l0,0l-17.2-20.2l-0.2-0.2l-0.2,0.2
	c-4.5,5.8-11.2,9.1-18.6,9.1c-13,0-23.6-10.7-23.6-23.6s10.7-23.6,23.6-23.6c7.8,0,15.1,3.9,19.6,10.7v0.2l17.4-20.5l0,0l0,0
	C28.5,57,15.1,51,1,51z"/>
</svg>
