<?xml version="1.0" encoding="utf-8"?>
<!DOCTYPE svg PUBLIC "-//W3C//DTD SVG 1.1//EN" "http://www.w3.org/Graphics/SVG/1.1/DTD/svg11.dtd">
<svg version="1.1" id="Layer_1" xmlns="http://www.w3.org/2000/svg" xmlns:xlink="http://www.w3.org/1999/xlink" x="0px" y="0px"
	 width="300px" height="66.1px" viewBox="-49 51 300 66.1" style="enable-background:new -49 51 300 66.1;" xml:space="preserve">
<style type="text/css">
	.st0{fill:#D31E49;}
</style>
<g>
	<path class="st0" d="M152.4,51c-18.2,0-33,14.8-33,33s14.8,33,33,33s33-14.8,33-33C185.5,65.8,170.7,51,152.4,51z M152.4,99.6
		c-8.6,0-15.6-7-15.6-15.6s7-15.6,15.6-15.6c8.6,0,15.6,7,15.6,15.6S161.1,99.6,152.4,99.6z"/>
	<path class="st0" d="M49.3,51c-18.2,0-33,14.8-33,33s14.8,33,33,33s33-14.8,33-33S67.4,51,49.3,51z M49.3,99.6
		c-8.6,0-15.6-7-15.6-15.6s7-15.6,15.6-15.6s15.6,7,15.6,15.6S57.8,99.6,49.3,99.6z"/>
	<path class="st0" d="M-16,51c-18.2,0-33,14.8-33,33s14.8,33,33,33c9.1,0,17.5-3.6,23.8-10.1l0,0L-3.6,93.6l-0.1-0.1l-0.1,0.1
		c-2.9,3.8-7.4,6-12.3,6c-8.6,0-15.6-7-15.6-15.6s7-15.6,15.6-15.6c5.1,0,10,2.6,12.9,7v0.1L8.3,62l0,0l0,0C2.2,55-6.7,51-16,51z"/>
	<polygon class="st0" points="91.7,89.8 91.7,89.9 109.4,89.8 109.5,89.8 109.5,72.9 91.7,72.9 	"/>
	<path class="st0" d="M223.4,51.1h-26.1v66h17v-10.7l9.1,0.1c15.2,0,27.6-12.4,27.6-27.6S238.6,51.1,223.4,51.1z M224.8,89.6
		l-10.5-0.1V68h10.5c6,0,10.7,4.9,10.7,10.7C235.6,84.8,230.8,89.6,224.8,89.6z"/>
</g>
</svg>
