<?xml version="1.0" encoding="utf-8"?>
<!-- Generator: Adobe Illustrator 19.1.0, SVG Export Plug-In . SVG Version: 6.00 Build 0)  -->
<!DOCTYPE svg PUBLIC "-//W3C//DTD SVG 1.1//EN" "http://www.w3.org/Graphics/SVG/1.1/DTD/svg11.dtd">
<svg version="1.1" id="Layer_1" xmlns="http://www.w3.org/2000/svg" xmlns:xlink="http://www.w3.org/1999/xlink" x="0px" y="0px"
	 width="300px" height="200px" viewBox="-85 97 300 200" style="enable-background:new -85 97 300 200;" xml:space="preserve">
<style type="text/css">
	.st0{fill:#D31245;}
</style>
<path class="st0" d="M-2.1,114.1c-45.8,0-82.9,37.1-82.9,82.9v82.9h82.9c45.8,0,82.9-37.1,82.9-82.9
	C80.8,151.2,43.7,114.1-2.1,114.1z M-2.1,222.9c8.3,0,15.7-3.9,20.5-10l18.7,21.8c-9.9,10.3-23.8,16.7-39.2,16.7
	c-30,0-54.4-24.4-54.4-54.4c0-30,24.4-54.4,54.4-54.4c16,0,30.5,6.9,40.4,18l-18.9,22.1c-4.7-6.9-12.6-11.6-21.5-11.6
	c-14.3,0-25.9,11.6-25.9,25.9C-28,211.3-16.4,222.9-2.1,222.9z"/>
</svg>
