<?xml version="1.0" encoding="utf-8"?>
<!DOCTYPE svg PUBLIC "-//W3C//DTD SVG 1.1//EN" "http://www.w3.org/Graphics/SVG/1.1/DTD/svg11.dtd">
<svg version="1.1" id="Layer_1" xmlns="http://www.w3.org/2000/svg" xmlns:xlink="http://www.w3.org/1999/xlink" x="0px" y="0px"
	 width="300px" height="200px" viewBox="0 0 300 200" style="enable-background:new 0 0 300 200;" xml:space="preserve">
<style type="text/css">
	.st0{fill:#D31E49;}
</style>
<g>
	<path class="st0" d="M292.2,35.4c3.6,0,6.5-2.9,6.5-6.5s-2.9-6.5-6.5-6.5s-6.5,2.9-6.5,6.5S288.6,35.4,292.2,35.4z M292.2,24
		c2.7,0,4.9,2.2,4.9,4.9s-2.2,4.9-4.9,4.9s-4.9-2.2-4.9-4.9S289.5,24,292.2,24z"/>
	<path class="st0" d="M291.5,29.6h1c0.7,0,0.8,0.6,0.8,1.2c0,0.3,0.1,0.6,0.2,0.9h1.8c-0.2-0.3-0.2-1-0.2-1.3
		c-0.1-0.7-0.4-1.3-0.9-1.5c0.6-0.2,0.9-0.9,0.9-1.5c0-1.1-0.9-1.7-1.9-1.7h-3.5v5.9h1.8V29.6z M291.5,27.1h0.9
		c0.7,0,0.9,0.2,0.9,0.6c0,0.5-0.5,0.6-0.8,0.6h-1V27.1z"/>
	<path class="st0" d="M299.3,99.2c-2-7.3-19.4-66.5-19.6-67.1c-2.1-6.3-6.1-10.7-12-13.1c-2.9-1.2-6.3-1.9-9.5-1.9
		c-1.6,0-108.2,0-108.2,0s-106.6,0-108.2,0c-3.2,0-6.6,0.7-9.5,1.9c-5.9,2.4-9.9,6.9-12,13.1C20.1,32.7,2.7,91.9,0.7,99.2
		c-1.1,4-0.9,8.5,0.5,12.4c1.7,4.7,4.9,8.4,9.5,10.7L150,182.9l0,0l139.3-60.6c4.5-2.3,7.8-6,9.5-10.7
		C300.2,107.7,300.4,103.2,299.3,99.2z M292.9,108.4c-1.3,2.7-3.7,4.6-6.9,5.6c-9.7,2.7-133.8,38.5-136,39.1
		c-2.2-0.6-126.3-36.4-136-39.1c-3.3-1-5.6-2.9-6.9-5.6c-2.5-5-0.9-11-0.1-13.3c1.6-4.4,21.2-57.8,21.2-57.8
		c2.6-7,8.1-10.1,12.2-10.1c3.9,0,109.6,0,109.6,0s99.7,0,109,0h0.6c4.1,0,9.7,3.2,12.2,10.1c0,0,19.6,53.4,21.2,57.8
		C293.8,97.4,295.4,103.4,292.9,108.4z"/>
	<path class="st0" d="M190.1,53.1c-14.2,0-25.8,11.6-25.8,25.8c0,14.2,11.6,25.8,25.8,25.8c14.2,0,25.8-11.6,25.8-25.8
		C216,64.7,204.4,53.1,190.1,53.1z M190.1,91.1c-6.7,0-12.2-5.5-12.2-12.2c0-6.7,5.5-12.2,12.2-12.2c6.7,0,12.2,5.5,12.2,12.2
		C202.3,85.6,196.9,91.1,190.1,91.1z"/>
	<path class="st0" d="M109.5,53.1c-14.2,0-25.8,11.6-25.8,25.8c0,14.2,11.6,25.8,25.8,25.8s25.8-11.6,25.8-25.8
		C135.3,64.7,123.7,53.1,109.5,53.1z M109.5,91.1c-6.7,0-12.2-5.5-12.2-12.2c0-6.7,5.5-12.2,12.2-12.2c6.7,0,12.2,5.5,12.2,12.2
		C121.7,85.6,116.2,91.1,109.5,91.1z"/>
	<path class="st0" d="M58.5,53.1c-14.2,0-25.8,11.6-25.8,25.8c0,14.2,11.6,25.8,25.8,25.8c7.1,0,13.7-2.8,18.6-7.9l0,0l-8.9-10.4
		l-0.1-0.1l-0.1,0.1c-2.3,3-5.8,4.7-9.6,4.7c-6.7,0-12.2-5.5-12.2-12.2c0-6.7,5.5-12.2,12.2-12.2c4,0,7.8,2,10.1,5.5l0,0.1l9-10.6
		l0,0l0,0C72.7,56.2,65.8,53.1,58.5,53.1z"/>
	<polygon class="st0" points="142.7,83.4 142.7,83.5 156.5,83.4 156.6,83.4 156.6,70.2 142.7,70.2 	"/>
	<path class="st0" d="M245.6,53.2h-20.4v51.6h13.3v-8.4l7.1,0.1c11.9,0,21.6-9.7,21.6-21.6S257.5,53.2,245.6,53.2z M246.7,83.3
		l-8.2-0.1V66.4h8.2c4.7,0,8.4,3.8,8.4,8.4C255.2,79.5,251.4,83.3,246.7,83.3z"/>
</g>
</svg>
