<?xml version="1.0" encoding="utf-8"?>
<!DOCTYPE svg PUBLIC "-//W3C//DTD SVG 1.1//EN" "http://www.w3.org/Graphics/SVG/1.1/DTD/svg11.dtd">
<svg version="1.1" id="Layer_1" xmlns="http://www.w3.org/2000/svg" xmlns:xlink="http://www.w3.org/1999/xlink" x="0px" y="0px"
	 width="864px" height="121.9px" viewBox="0 0 864 121.9" style="enable-background:new 0 0 864 121.9;" xml:space="preserve">
<style type="text/css">
	.st0{opacity:0.4;}
	.st1{fill:#E0E0E0;}
</style>
<g class="st0">
	<g>
		<path class="st1" d="M823.3,6.7c-7,0-12.9-2.5-13.7-2.8l-0.1,0c-0.1,0-6.2-2.7-13.2-2.7c-7.1,0-13.2,2.7-13.3,2.7
			c-0.3,0.1-6.4,2.8-13.7,2.8c-7.3,0-13.5-2.7-13.7-2.8l-0.3-0.1c-1.3-0.5-6.8-2.6-12.9-2.6c-7.1,0-13.2,2.7-13.3,2.7
			c-0.3,0.1-6.4,2.8-13.7,2.8c-7,0-12.9-2.5-13.7-2.8l-0.1,0c-0.1,0-6.2-2.7-13.2-2.7c-6.7,0-12.6,2.4-13.2,2.7l-0.1,0
			c-0.3,0.1-6.4,2.8-13.7,2.8c-7.3,0-13.5-2.7-13.7-2.8l-0.3-0.1c-1.3-0.5-6.8-2.6-13-2.6c-7.1,0-13.2,2.7-13.3,2.7
			c-0.3,0.1-6.4,2.8-13.7,2.8c-7,0-12.9-2.5-13.7-2.8l-0.1,0c-0.1,0-6.2-2.7-13.2-2.7c-7.1,0-13.2,2.7-13.3,2.7
			c-0.3,0.1-6.4,2.8-13.7,2.8c-7.3,0-13.5-2.7-13.7-2.8l-0.3-0.1c-1.3-0.5-6.8-2.6-13-2.6c-6.7,0-12.6,2.4-13.2,2.7l-0.1,0
			c-0.3,0.1-6.4,2.8-13.7,2.8c-7,0-12.9-2.5-13.7-2.8l-0.1,0c-0.1,0-6.2-2.7-13.2-2.7c-7.1,0-13.2,2.7-13.3,2.7
			c-0.3,0.1-6.4,2.8-13.7,2.8c-7.3,0-13.5-2.7-13.7-2.8l0,0c-0.5-0.2-6.5-2.7-13.2-2.7c-6.7,0-12.6,2.4-13.2,2.7l-0.1,0
			c-0.3,0.1-6.4,2.8-13.7,2.8c-7,0-12.9-2.5-13.7-2.8l-0.1,0c-0.1,0-6.2-2.7-13.2-2.7c-6.7,0-12.6,2.4-13.2,2.7l-0.1,0
			c-0.3,0.1-6.4,2.8-13.7,2.8c-7.3,0-13.5-2.7-13.7-2.8l-0.3-0.1c-1.3-0.5-6.8-2.6-13-2.6c-7.1,0-13.2,2.7-13.3,2.7
			c-0.3,0.1-6.4,2.8-13.7,2.8c-7,0-12.9-2.5-13.7-2.8l-0.1,0c-0.1,0-6.2-2.7-13.2-2.7c-7.1,0-13.2,2.7-13.3,2.7
			c-0.3,0.1-6.4,2.8-13.7,2.8c-7.3,0-13.5-2.7-13.7-2.8l-0.3-0.1c-1.3-0.5-6.8-2.6-12.9-2.6c-7.1,0-13.2,2.7-13.3,2.7
			c-0.3,0.1-6.4,2.8-13.7,2.8c-7,0-12.9-2.5-13.7-2.8l-0.1,0c-0.1,0-6.2-2.7-13.2-2.7c-6.7,0-12.6,2.4-13.2,2.7l-0.1,0
			c-0.3,0.1-6.4,2.8-13.7,2.8c-7.3,0-13.5-2.7-13.7-2.8l-0.3-0.1c-1.3-0.5-6.8-2.6-13-2.6c-6.7,0-12.6,2.4-13.2,2.7l-0.1,0
			C81.2,4,75,6.7,67.7,6.7c-7,0-12.9-2.5-13.7-2.8l-0.1,0c-0.1,0-6.2-2.7-13.2-2.7c-6.7,0-12.6,2.4-13.2,2.7l-0.1,0
			C27.2,4,21,6.7,13.7,6.7C6.4,6.7,0.3,4,0,3.9l0.5-1c0.1,0,6.2,2.7,13.2,2.7c6.7,0,12.6-2.4,13.2-2.7l0.1,0C27.2,2.7,33.4,0,40.7,0
			c7,0,12.9,2.5,13.7,2.8l0.1,0c0.1,0,6.2,2.7,13.2,2.7c6.7,0,12.6-2.4,13.2-2.7l0.1,0C81.2,2.7,87.4,0,94.7,0
			c7.3,0,13.5,2.7,13.7,2.8l0.3,0.1c1.3,0.5,6.8,2.6,13,2.6c6.7,0,12.6-2.4,13.2-2.7l0.1,0c0.3-0.1,6.4-2.8,13.7-2.8
			c7,0,12.9,2.5,13.7,2.8l0.1,0c0.1,0,6.2,2.7,13.2,2.7c7.1,0,13.2-2.7,13.3-2.7c0.3-0.1,6.4-2.8,13.7-2.8c7.3,0,13.5,2.7,13.7,2.8
			l0.3,0.1c1.3,0.5,6.8,2.6,12.9,2.6c7.1,0,13.2-2.7,13.3-2.7c0.3-0.1,6.4-2.8,13.7-2.8c7,0,12.9,2.5,13.7,2.8l0.1,0
			c0.1,0,6.2,2.7,13.2,2.7c7.1,0,13.2-2.7,13.3-2.7c0.3-0.1,6.4-2.8,13.7-2.8c7.3,0,13.5,2.7,13.7,2.8l0.3,0.1
			c1.3,0.5,6.8,2.6,13,2.6c6.7,0,12.6-2.4,13.2-2.7l0.1,0c0.3-0.1,6.4-2.8,13.7-2.8c7,0,12.9,2.5,13.7,2.8l0.1,0
			c0.1,0,6.2,2.7,13.2,2.7c6.7,0,12.6-2.4,13.2-2.7l0.1,0c0.3-0.1,6.4-2.8,13.7-2.8c7.3,0,13.5,2.7,13.7,2.8l0,0
			c0.5,0.2,6.5,2.7,13.2,2.7c7.1,0,13.2-2.7,13.3-2.7C459,2.7,465.2,0,472.4,0c7,0,12.9,2.5,13.7,2.8l0.1,0c0.1,0,6.2,2.7,13.2,2.7
			c6.7,0,12.6-2.4,13.2-2.7l0.1,0C513,2.7,519.1,0,526.4,0c7.3,0,13.5,2.7,13.7,2.8l0.3,0.1c1.3,0.5,6.8,2.6,13,2.6
			c7.1,0,13.2-2.7,13.3-2.7c0.3-0.1,6.4-2.8,13.7-2.8c7,0,12.9,2.5,13.7,2.8l0.1,0c0.1,0,6.2,2.7,13.2,2.7c7.1,0,13.2-2.7,13.3-2.7
			c0.3-0.1,6.4-2.8,13.7-2.8c7.3,0,13.5,2.7,13.7,2.8l0.3,0.1c1.3,0.5,6.8,2.6,13,2.6c6.7,0,12.6-2.4,13.2-2.7l0.1,0
			C674.9,2.7,681,0,688.3,0c7,0,12.9,2.5,13.7,2.8l0.1,0c0.1,0,6.2,2.7,13.2,2.7c7.1,0,13.2-2.7,13.3-2.7C728.9,2.7,735,0,742.3,0
			c7.3,0,13.5,2.7,13.7,2.8l0.3,0.1c1.3,0.5,6.8,2.6,12.9,2.6c7.1,0,13.2-2.7,13.3-2.7C782.8,2.7,789,0,796.3,0
			c7,0,12.9,2.5,13.7,2.8l0.1,0c0.1,0,6.2,2.7,13.2,2.7c7.1,0,13.2-2.7,13.3-2.7C836.8,2.7,843,0,850.3,0c7.3,0,13.5,2.7,13.7,2.8
			l-0.5,1c-0.1,0-6.2-2.7-13.2-2.7c-7.1,0-13.2,2.7-13.3,2.7C836.8,4,830.6,6.7,823.3,6.7z"/>
	</g>
	<g>
		<path class="st1" d="M823.3,13.1c-7.3,0-13.5-2.7-13.7-2.8c-0.1,0-6.2-2.7-13.3-2.7c-6.7,0-12.6,2.4-13.2,2.7l-0.1,0
			c-0.3,0.1-6.4,2.8-13.7,2.8c-7.3,0-13.5-2.7-13.7-2.8l-0.3-0.1c-1.4-0.6-6.8-2.6-12.9-2.6c-6.7,0-12.6,2.4-13.2,2.7l-0.1,0
			c-0.3,0.1-6.4,2.8-13.7,2.8c-7.3,0-13.5-2.7-13.7-2.8c-0.1,0-6.2-2.7-13.3-2.7c-6.6,0-12.4,2.4-13.2,2.7l-0.1,0
			c-0.3,0.1-6.4,2.8-13.7,2.8c-7.3,0-13.5-2.7-13.7-2.8l-0.3-0.1c-1.4-0.6-6.8-2.6-12.9-2.6c-6.7,0-12.6,2.4-13.2,2.7l-0.1,0
			c-0.3,0.1-6.4,2.8-13.7,2.8c-7.3,0-13.5-2.7-13.7-2.8c-0.1,0-6.2-2.7-13.3-2.7c-7.1,0-13.2,2.7-13.3,2.7
			c-0.3,0.1-6.4,2.8-13.7,2.8c-7.3,0-13.5-2.7-13.7-2.8l-0.3-0.1c-1.4-0.6-6.8-2.6-12.9-2.6c-6.6,0-12.4,2.4-13.2,2.7l-0.1,0
			c-0.3,0.1-6.4,2.8-13.7,2.8c-7.3,0-13.5-2.7-13.7-2.8c-0.1,0-6.2-2.7-13.3-2.7c-6.7,0-12.6,2.4-13.2,2.7l-0.1,0
			c-0.3,0.1-6.4,2.8-13.7,2.8c-7.3,0-13.5-2.7-13.7-2.8l-0.6-0.3c-1.7-0.7-6.9-2.5-12.6-2.5c-6.6,0-12.4,2.4-13.2,2.7l-0.1,0
			c-0.3,0.1-6.4,2.8-13.7,2.8c-7.3,0-13.5-2.7-13.7-2.8c-0.1,0-6.2-2.7-13.3-2.7c-6.6,0-12.4,2.4-13.2,2.7l-0.1,0
			c-0.3,0.1-6.4,2.8-13.7,2.8c-7.3,0-13.5-2.7-13.7-2.8l-0.3-0.1c-1.4-0.6-6.8-2.6-12.9-2.6c-6.7,0-12.6,2.4-13.2,2.7l-0.1,0
			c-0.3,0.1-6.4,2.8-13.7,2.8c-7.3,0-13.5-2.7-13.7-2.8c-0.1,0-6.2-2.7-13.3-2.7c-6.7,0-12.6,2.4-13.2,2.7l-0.1,0
			c-0.3,0.1-6.4,2.8-13.7,2.8c-7.3,0-13.5-2.7-13.7-2.8l-0.3-0.1c-1.4-0.6-6.8-2.6-12.9-2.6c-6.7,0-12.6,2.4-13.2,2.7l-0.1,0
			c-0.3,0.1-6.4,2.8-13.7,2.8c-7.3,0-13.5-2.7-13.7-2.8c-0.1,0-6.2-2.7-13.3-2.7c-6.6,0-12.4,2.4-13.2,2.7l-0.1,0
			c-0.3,0.1-6.4,2.8-13.7,2.8c-7.3,0-13.5-2.7-13.7-2.8l-0.3-0.1c-1.4-0.6-6.8-2.6-12.9-2.6c-6.6,0-12.4,2.4-13.2,2.7l-0.1,0
			c-0.3,0.1-6.4,2.8-13.7,2.8c-7.3,0-13.5-2.7-13.7-2.8c-0.1,0-6.2-2.7-13.3-2.7c-6.6,0-12.4,2.4-13.2,2.7l-0.1,0
			c-0.3,0.1-6.4,2.8-13.7,2.8c-7.3,0-13.5-2.7-13.7-2.8l0.5-1c0.1,0,6.2,2.7,13.2,2.7c6.6,0,12.4-2.4,13.2-2.7l0.1,0
			c0.3-0.1,6.4-2.8,13.7-2.8c7.3,0,13.5,2.7,13.7,2.8c0.1,0,6.2,2.7,13.3,2.7c6.6,0,12.4-2.4,13.2-2.7l0.1,0
			c0.3-0.1,6.4-2.8,13.7-2.8c7.3,0,13.5,2.7,13.7,2.8l0.3,0.1c1.4,0.6,6.8,2.6,12.9,2.6c6.6,0,12.4-2.4,13.2-2.7l0.1,0
			c0.3-0.1,6.4-2.8,13.7-2.8c7.3,0,13.5,2.7,13.7,2.8c0.1,0,6.2,2.7,13.3,2.7c6.7,0,12.6-2.4,13.2-2.7l0.1,0
			c0.3-0.1,6.4-2.8,13.7-2.8c7.3,0,13.5,2.7,13.7,2.8l0.3,0.1c1.4,0.6,6.8,2.6,12.9,2.6c6.7,0,12.6-2.4,13.2-2.7l0.1,0
			c0.3-0.1,6.4-2.8,13.7-2.8c7.3,0,13.5,2.7,13.7,2.8c0.1,0,6.2,2.7,13.3,2.7c6.7,0,12.6-2.4,13.2-2.7l0.1,0
			c0.3-0.1,6.4-2.8,13.7-2.8c7.3,0,13.5,2.7,13.7,2.8l0.3,0.1c1.4,0.6,6.8,2.6,12.9,2.6c6.6,0,12.4-2.4,13.2-2.7l0.1,0
			c0.3-0.1,6.4-2.8,13.7-2.8c7.3,0,13.5,2.7,13.7,2.8c0.1,0,6.2,2.7,13.3,2.7c6.6,0,12.4-2.4,13.2-2.7l0.1,0
			c0.3-0.1,6.4-2.8,13.7-2.8c7.3,0,13.5,2.7,13.7,2.8l0.6,0.3c1.7,0.7,6.9,2.5,12.6,2.5c6.7,0,12.6-2.4,13.2-2.7l0.1,0
			c0.3-0.1,6.4-2.8,13.7-2.8c7.3,0,13.5,2.7,13.7,2.8c0.1,0,6.2,2.7,13.3,2.7c6.6,0,12.4-2.4,13.2-2.7l0.1,0
			c0.3-0.1,6.4-2.8,13.7-2.8c7.3,0,13.5,2.7,13.7,2.8l0.3,0.1c1.4,0.6,6.8,2.6,12.9,2.6c7.1,0,13.2-2.7,13.3-2.7
			c0.3-0.1,6.4-2.8,13.7-2.8c7.3,0,13.5,2.7,13.7,2.8c0.1,0,6.2,2.7,13.3,2.7c6.7,0,12.6-2.4,13.2-2.7l0.1,0
			c0.3-0.1,6.4-2.8,13.7-2.8c7.3,0,13.5,2.7,13.7,2.8l0.3,0.1c1.4,0.6,6.8,2.6,12.9,2.6c6.6,0,12.4-2.4,13.2-2.7l0.1,0
			c0.3-0.1,6.4-2.8,13.7-2.8c7.3,0,13.5,2.7,13.7,2.8c0.1,0,6.2,2.7,13.3,2.7c6.7,0,12.6-2.4,13.2-2.7l0.1,0
			c0.3-0.1,6.4-2.8,13.7-2.8c7.3,0,13.5,2.7,13.7,2.8l0.3,0.1c1.4,0.6,6.8,2.6,12.9,2.6c6.7,0,12.6-2.4,13.2-2.7l0.1,0
			c0.3-0.1,6.4-2.8,13.7-2.8c7.3,0,13.5,2.7,13.7,2.8c0.1,0,6.2,2.7,13.3,2.7c6.7,0,12.6-2.4,13.2-2.7l0.1,0
			c0.3-0.1,6.4-2.8,13.7-2.8c7.3,0,13.5,2.7,13.7,2.8l-0.5,1c-0.1,0-6.2-2.7-13.2-2.7c-6.7,0-12.6,2.4-13.2,2.7l-0.1,0
			C836.8,10.4,830.6,13.1,823.3,13.1z"/>
	</g>
	<g>
		<path class="st1" d="M823.3,19.5c-7.3,0-13.5-2.7-13.7-2.8c-0.1,0-6.2-2.7-13.3-2.7c-6.7,0-12.5,2.4-13.2,2.7l-0.1,0
			c-0.3,0.1-6.4,2.8-13.7,2.8c-7.3,0-13.5-2.7-13.7-2.8l-0.3-0.2c-1.4-0.6-6.8-2.6-12.9-2.6c-6.7,0-12.5,2.4-13.2,2.7l-0.1,0
			c-0.3,0.1-6.4,2.8-13.7,2.8c-7.3,0-13.5-2.7-13.7-2.8c-0.1,0-6.2-2.7-13.3-2.7c-6.6,0-12.4,2.3-13.2,2.7l-0.1,0
			c-0.3,0.1-6.4,2.8-13.7,2.8c-7.3,0-13.5-2.7-13.7-2.8l-0.3-0.2c-1.4-0.6-6.8-2.6-12.9-2.6c-6.7,0-12.5,2.4-13.2,2.7l-0.1,0
			c-0.3,0.1-6.4,2.8-13.7,2.8c-7.3,0-13.5-2.7-13.7-2.8c-0.1,0-6.2-2.7-13.3-2.7c-6.7,0-12.6,2.4-13.2,2.7l-0.1,0
			c-0.3,0.1-6.4,2.8-13.7,2.8c-7.3,0-13.5-2.7-13.7-2.8l-0.3-0.1c-1.4-0.6-6.8-2.6-12.9-2.6c-6.6,0-12.4,2.3-13.2,2.7l-0.1,0
			c-0.3,0.1-6.4,2.8-13.7,2.8c-7.3,0-13.5-2.7-13.7-2.8c-0.1,0-6.2-2.7-13.3-2.7c-6.7,0-12.5,2.4-13.2,2.7l-0.1,0
			c-0.3,0.1-6.4,2.8-13.7,2.8c-7.3,0-13.5-2.7-13.7-2.8l-0.6-0.3c-1.8-0.7-6.9-2.5-12.6-2.5c-6.6,0-12.4,2.3-13.2,2.7l-0.1,0
			c-0.3,0.1-6.4,2.8-13.7,2.8c-7.3,0-13.5-2.7-13.7-2.8c-0.1,0-6.2-2.7-13.3-2.7c-6.6,0-12.4,2.3-13.2,2.7l-0.1,0
			c-0.3,0.1-6.4,2.8-13.7,2.8c-7.3,0-13.5-2.7-13.7-2.8l-0.3-0.2c-1.4-0.6-6.8-2.6-12.9-2.6c-6.7,0-12.5,2.4-13.2,2.7l-0.1,0
			c-0.3,0.1-6.4,2.8-13.7,2.8c-7.3,0-13.5-2.7-13.7-2.8c-0.1,0-6.2-2.7-13.3-2.7c-6.7,0-12.5,2.4-13.2,2.7l-0.1,0
			c-0.3,0.1-6.4,2.8-13.7,2.8c-7.3,0-13.5-2.7-13.7-2.8l-0.4-0.2c-1.4-0.6-6.8-2.6-12.9-2.6c-6.7,0-12.5,2.4-13.2,2.7l-0.1,0
			c-0.3,0.1-6.4,2.8-13.7,2.8c-7.3,0-13.5-2.7-13.7-2.8c-0.1,0-6.2-2.7-13.3-2.7c-6.6,0-12.4,2.3-13.2,2.7l-0.1,0
			c-0.3,0.1-6.4,2.8-13.7,2.8c-7.3,0-13.5-2.7-13.7-2.8l-0.3-0.1c-1.4-0.6-6.8-2.6-12.9-2.6c-6.6,0-12.4,2.3-13.2,2.7l-0.1,0
			c-0.3,0.1-6.4,2.8-13.7,2.8c-7.3,0-13.5-2.7-13.7-2.8c-0.1,0-6.2-2.7-13.3-2.7c-6.6,0-12.4,2.3-13.2,2.7l-0.1,0
			c-0.3,0.1-6.4,2.8-13.7,2.8c-7.3,0-13.5-2.7-13.7-2.8l0.5-1c0.1,0,6.2,2.7,13.2,2.7c6.6,0,12.4-2.3,13.2-2.7l0.1,0
			c0.3-0.1,6.4-2.8,13.7-2.8c7.3,0,13.5,2.7,13.7,2.8c0.1,0,6.2,2.7,13.3,2.7c6.6,0,12.4-2.3,13.2-2.7l0.1,0
			c0.3-0.1,6.4-2.8,13.7-2.8c7.3,0,13.5,2.7,13.7,2.8l0.3,0.1c1.4,0.6,6.8,2.6,12.9,2.6c6.6,0,12.4-2.3,13.2-2.7l0.1,0
			c0.3-0.1,6.4-2.8,13.7-2.8c7.3,0,13.5,2.7,13.7,2.8c0.1,0,6.2,2.7,13.3,2.7c6.7,0,12.5-2.4,13.2-2.7l0.1,0
			c0.3-0.1,6.4-2.8,13.7-2.8c7.3,0,13.5,2.7,13.7,2.8l0.3,0.2c1.4,0.6,6.8,2.6,12.9,2.6c6.7,0,12.5-2.4,13.2-2.7l0.1,0
			c0.3-0.1,6.4-2.8,13.7-2.8c7.3,0,13.5,2.7,13.7,2.8c0.1,0,6.2,2.7,13.3,2.7c6.7,0,12.5-2.4,13.2-2.7l0.1,0
			c0.3-0.1,6.4-2.8,13.7-2.8c7.3,0,13.5,2.7,13.7,2.8l0.3,0.1c1.4,0.6,6.8,2.6,12.9,2.6c6.6,0,12.4-2.3,13.2-2.7l0.1,0
			c0.3-0.1,6.4-2.8,13.7-2.8c7.3,0,13.5,2.7,13.7,2.8c0.1,0,6.2,2.7,13.3,2.7c6.6,0,12.4-2.3,13.2-2.7l0.1,0
			c0.3-0.1,6.4-2.8,13.7-2.8c7.3,0,13.5,2.7,13.7,2.8l0.6,0.3c1.7,0.7,6.9,2.5,12.6,2.5c6.7,0,12.5-2.4,13.2-2.7l0.1,0
			c0.3-0.1,6.4-2.8,13.7-2.8c7.3,0,13.5,2.7,13.7,2.8c0.1,0,6.2,2.7,13.3,2.7c6.6,0,12.4-2.3,13.2-2.7l0.1,0
			c0.3-0.1,6.4-2.8,13.7-2.8c7.3,0,13.5,2.7,13.7,2.8l0.3,0.1c1.4,0.6,6.8,2.6,12.9,2.6c6.7,0,12.6-2.4,13.2-2.7l0.1,0
			c0.3-0.1,6.4-2.8,13.7-2.8c7.3,0,13.5,2.7,13.7,2.8c0.1,0,6.2,2.7,13.3,2.7c6.7,0,12.5-2.4,13.2-2.7l0.1,0
			c0.3-0.1,6.4-2.8,13.7-2.8c7.3,0,13.5,2.7,13.7,2.8l0.3,0.1c1.4,0.6,6.8,2.6,12.9,2.6c6.6,0,12.4-2.3,13.2-2.7l0.1,0
			c0.3-0.1,6.4-2.8,13.7-2.8c7.3,0,13.5,2.7,13.7,2.8c0.1,0,6.2,2.7,13.3,2.7c6.7,0,12.5-2.4,13.2-2.7l0.1,0
			c0.3-0.1,6.4-2.8,13.7-2.8c7.3,0,13.5,2.7,13.7,2.8l0.3,0.2c1.4,0.6,6.8,2.6,12.9,2.6c6.7,0,12.5-2.4,13.2-2.7l0.1,0
			c0.3-0.1,6.4-2.8,13.7-2.8c7.3,0,13.5,2.7,13.7,2.8c0.1,0,6.2,2.7,13.3,2.7c6.7,0,12.5-2.4,13.2-2.7l0.1,0
			c0.3-0.1,6.4-2.8,13.7-2.8c7.3,0,13.5,2.7,13.7,2.8l-0.5,1c-0.1,0-6.2-2.7-13.2-2.7c-6.7,0-12.5,2.4-13.2,2.7l-0.1,0
			C836.8,16.7,830.6,19.5,823.3,19.5z"/>
	</g>
	<g>
		<path class="st1" d="M823.3,25.7c-7,0-12.9-2.5-13.7-2.8l-0.1,0c-0.1,0-6.2-2.7-13.2-2.7c-7.1,0-13.2,2.7-13.3,2.7
			c-0.3,0.1-6.4,2.8-13.7,2.8c-7.3,0-13.5-2.7-13.7-2.8l-0.3-0.1c-1.3-0.5-6.8-2.6-12.9-2.6c-7.1,0-13.2,2.7-13.3,2.7
			c-0.3,0.1-6.4,2.8-13.7,2.8c-7,0-12.9-2.5-13.7-2.8l-0.1,0c-0.1,0-6.2-2.7-13.2-2.7c-6.7,0-12.6,2.4-13.2,2.7l-0.1,0
			c-0.3,0.1-6.4,2.8-13.7,2.8c-7.3,0-13.5-2.7-13.7-2.8l-0.3-0.1c-1.3-0.5-6.8-2.6-13-2.6c-7.1,0-13.2,2.7-13.3,2.7
			c-0.3,0.1-6.4,2.8-13.7,2.8c-7,0-12.9-2.5-13.7-2.8l-0.1,0c-0.1,0-6.2-2.7-13.2-2.7c-7.1,0-13.2,2.7-13.3,2.7
			c-0.3,0.1-6.4,2.8-13.7,2.8c-7.3,0-13.5-2.7-13.7-2.8l-0.3-0.1c-1.3-0.5-6.8-2.6-13-2.6c-6.7,0-12.6,2.4-13.2,2.7l-0.1,0
			c-0.3,0.1-6.4,2.8-13.7,2.8c-7,0-12.9-2.5-13.7-2.8l-0.1,0c-0.1,0-6.2-2.7-13.2-2.7c-7.1,0-13.2,2.7-13.3,2.7
			c-0.3,0.1-6.4,2.8-13.7,2.8c-7.3,0-13.5-2.7-13.7-2.8l0,0c-0.5-0.2-6.5-2.7-13.2-2.7c-6.7,0-12.6,2.4-13.2,2.7l-0.1,0
			c-0.3,0.1-6.4,2.8-13.7,2.8c-7,0-12.9-2.5-13.7-2.8l-0.1,0c-0.1,0-6.2-2.7-13.2-2.7c-6.7,0-12.6,2.4-13.2,2.7l-0.1,0
			c-0.3,0.1-6.4,2.8-13.7,2.8c-7.3,0-13.5-2.7-13.7-2.8l-0.3-0.1c-1.3-0.5-6.8-2.6-13-2.6c-7.1,0-13.2,2.7-13.3,2.7
			c-0.3,0.1-6.4,2.8-13.7,2.8c-7,0-12.9-2.5-13.7-2.8l-0.1,0c-0.1,0-6.2-2.7-13.2-2.7c-7.1,0-13.2,2.7-13.3,2.7
			c-0.3,0.1-6.4,2.8-13.7,2.8c-7.3,0-13.5-2.7-13.7-2.8l-0.3-0.1c-1.3-0.5-6.8-2.6-12.9-2.6c-7.1,0-13.2,2.7-13.3,2.7
			c-0.3,0.1-6.4,2.8-13.7,2.8c-7,0-12.9-2.5-13.7-2.8l-0.1,0c-0.1,0-6.2-2.7-13.2-2.7c-6.7,0-12.6,2.4-13.2,2.7l-0.1,0
			c-0.3,0.1-6.4,2.8-13.7,2.8c-7.3,0-13.5-2.7-13.7-2.8l-0.3-0.1c-1.3-0.5-6.8-2.6-13-2.6c-6.7,0-12.6,2.4-13.2,2.7l-0.1,0
			c-0.3,0.1-6.4,2.8-13.7,2.8c-7,0-12.9-2.5-13.7-2.8l-0.1,0c-0.1,0-6.2-2.7-13.2-2.7c-6.7,0-12.6,2.4-13.2,2.7l-0.1,0
			c-0.3,0.1-6.4,2.8-13.7,2.8C6.4,25.7,0.3,23,0,22.9l0.5-1c0.1,0,6.2,2.7,13.2,2.7c6.7,0,12.6-2.4,13.2-2.7l0.1,0
			c0.3-0.1,6.4-2.8,13.7-2.8c7,0,12.9,2.5,13.7,2.8l0.1,0c0.1,0,6.2,2.7,13.2,2.7c6.7,0,12.6-2.4,13.2-2.7l0.1,0
			c0.3-0.1,6.4-2.8,13.7-2.8c7.3,0,13.5,2.7,13.7,2.8l0.3,0.1c1.3,0.5,6.8,2.6,13,2.6c6.7,0,12.6-2.4,13.2-2.7l0.1,0
			c0.3-0.1,6.4-2.8,13.7-2.8c7,0,12.9,2.5,13.7,2.8l0.1,0c0.1,0,6.2,2.7,13.2,2.7c7.1,0,13.2-2.7,13.3-2.7c0.3-0.1,6.4-2.8,13.7-2.8
			c7.3,0,13.5,2.7,13.7,2.8l0.3,0.1c1.3,0.5,6.8,2.6,12.9,2.6c7.1,0,13.2-2.7,13.3-2.7c0.3-0.1,6.4-2.8,13.7-2.8
			c7,0,12.9,2.5,13.7,2.8l0.1,0c0.1,0,6.2,2.7,13.2,2.7c7.1,0,13.2-2.7,13.3-2.7c0.3-0.1,6.4-2.8,13.7-2.8c7.3,0,13.5,2.7,13.7,2.8
			l0.3,0.1c1.3,0.5,6.8,2.6,13,2.6c6.7,0,12.6-2.4,13.2-2.7l0.1,0c0.3-0.1,6.4-2.8,13.7-2.8c7,0,12.9,2.5,13.7,2.8l0.1,0
			c0.1,0,6.2,2.7,13.2,2.7c6.7,0,12.6-2.4,13.2-2.7l0.1,0c0.3-0.1,6.4-2.8,13.7-2.8c7.3,0,13.5,2.7,13.7,2.8l0,0
			c0.5,0.2,6.5,2.7,13.2,2.7c7.1,0,13.2-2.7,13.3-2.7c0.3-0.1,6.4-2.8,13.7-2.8c7,0,12.9,2.5,13.7,2.8l0.1,0c0.1,0,6.2,2.7,13.2,2.7
			c6.7,0,12.6-2.4,13.2-2.7l0.1,0c0.3-0.1,6.4-2.8,13.7-2.8c7.3,0,13.5,2.7,13.7,2.8l0.3,0.1c1.3,0.5,6.8,2.6,13,2.6
			c7.1,0,13.2-2.7,13.3-2.7c0.3-0.1,6.4-2.8,13.7-2.8c7,0,12.9,2.5,13.7,2.8l0.1,0c0.1,0,6.2,2.7,13.2,2.7c7.1,0,13.2-2.7,13.3-2.7
			c0.3-0.1,6.4-2.8,13.7-2.8c7.3,0,13.5,2.7,13.7,2.8l0.3,0.1c1.3,0.5,6.8,2.6,13,2.6c6.7,0,12.6-2.4,13.2-2.7l0.1,0
			c0.3-0.1,6.4-2.8,13.7-2.8c7,0,12.9,2.5,13.7,2.8l0.1,0c0.1,0,6.2,2.7,13.2,2.7c7.1,0,13.2-2.7,13.3-2.7c0.3-0.1,6.4-2.8,13.7-2.8
			c7.3,0,13.5,2.7,13.7,2.8l0.3,0.1c1.3,0.5,6.8,2.6,12.9,2.6c7.1,0,13.2-2.7,13.3-2.7c0.3-0.1,6.4-2.8,13.7-2.8
			c7,0,12.9,2.5,13.7,2.8l0.1,0c0.1,0,6.2,2.7,13.2,2.7c7.1,0,13.2-2.7,13.3-2.7c0.3-0.1,6.4-2.8,13.7-2.8c7.3,0,13.5,2.7,13.7,2.8
			l-0.5,1c-0.1,0-6.2-2.7-13.2-2.7c-7.1,0-13.2,2.7-13.3,2.7C836.8,23,830.6,25.7,823.3,25.7z"/>
	</g>
	<g>
		<path class="st1" d="M823.3,32.1c-7,0-12.9-2.5-13.7-2.8l-0.1,0c-0.1,0-6.2-2.7-13.2-2.7c-7.1,0-13.2,2.7-13.3,2.7
			c-0.3,0.1-6.4,2.8-13.7,2.8c-7.3,0-13.5-2.7-13.7-2.8l-0.3-0.1c-1.3-0.5-6.8-2.6-12.9-2.6c-7.1,0-13.2,2.7-13.3,2.7
			c-0.3,0.1-6.4,2.8-13.7,2.8c-7,0-12.9-2.5-13.7-2.8l-0.1,0c-0.1,0-6.2-2.7-13.2-2.7c-6.7,0-12.6,2.4-13.2,2.7l-0.1,0
			c-0.3,0.1-6.4,2.8-13.7,2.8c-7.3,0-13.5-2.7-13.7-2.8l-0.3-0.1c-1.3-0.5-6.8-2.6-13-2.6c-7.1,0-13.2,2.7-13.3,2.7
			c-0.3,0.1-6.4,2.8-13.7,2.8c-7,0-12.9-2.5-13.7-2.8l-0.1,0c-0.1,0-6.2-2.7-13.2-2.7c-7.1,0-13.2,2.7-13.3,2.7
			c-0.3,0.1-6.4,2.8-13.7,2.8c-7.3,0-13.5-2.7-13.7-2.8l-0.3-0.1c-1.3-0.5-6.8-2.6-13-2.6c-6.7,0-12.6,2.4-13.2,2.7l-0.1,0
			c-0.3,0.1-6.4,2.8-13.7,2.8c-7,0-12.9-2.5-13.7-2.8l-0.1,0c-0.1,0-6.2-2.7-13.2-2.7c-7.1,0-13.2,2.7-13.3,2.7
			c-0.3,0.1-6.4,2.8-13.7,2.8c-7.3,0-13.5-2.7-13.7-2.8l0,0c-0.5-0.2-6.5-2.7-13.2-2.7c-6.7,0-12.6,2.4-13.2,2.7l-0.1,0
			c-0.3,0.1-6.4,2.8-13.7,2.8c-7,0-12.9-2.5-13.7-2.8l-0.1,0c-0.1,0-6.2-2.7-13.2-2.7c-6.7,0-12.6,2.4-13.2,2.7l-0.1,0
			c-0.3,0.1-6.4,2.8-13.7,2.8c-7.3,0-13.5-2.7-13.7-2.8l-0.3-0.1c-1.3-0.5-6.8-2.6-13-2.6c-7.1,0-13.2,2.7-13.3,2.7
			c-0.3,0.1-6.4,2.8-13.7,2.8c-7,0-12.9-2.5-13.7-2.8l-0.1,0c-0.1,0-6.2-2.7-13.2-2.7c-7.1,0-13.2,2.7-13.3,2.7
			c-0.3,0.1-6.4,2.8-13.7,2.8c-7.3,0-13.5-2.7-13.7-2.8l-0.3-0.1c-1.3-0.5-6.8-2.6-12.9-2.6c-7.1,0-13.2,2.7-13.3,2.7
			c-0.3,0.1-6.4,2.8-13.7,2.8c-7,0-12.9-2.5-13.7-2.8l-0.1,0c-0.1,0-6.2-2.7-13.2-2.7c-6.7,0-12.6,2.4-13.2,2.7l-0.1,0
			c-0.3,0.1-6.4,2.8-13.7,2.8c-7.3,0-13.5-2.7-13.7-2.8l-0.3-0.1c-1.3-0.5-6.8-2.6-13-2.6c-6.7,0-12.6,2.4-13.2,2.7l-0.1,0
			c-0.3,0.1-6.4,2.8-13.7,2.8c-7,0-12.9-2.5-13.7-2.8l-0.1,0c-0.1,0-6.2-2.7-13.2-2.7c-6.7,0-12.6,2.4-13.2,2.7l-0.1,0
			c-0.3,0.1-6.4,2.8-13.7,2.8c-7.3,0-13.5-2.7-13.7-2.8l0.5-1c0.1,0,6.2,2.7,13.2,2.7c6.7,0,12.6-2.4,13.2-2.7l0.1,0
			c0.3-0.1,6.4-2.8,13.7-2.8c7,0,12.9,2.5,13.7,2.8l0.1,0c0.1,0,6.2,2.7,13.2,2.7c6.7,0,12.6-2.4,13.2-2.7l0.1,0
			c0.3-0.1,6.4-2.8,13.7-2.8c7.3,0,13.5,2.7,13.7,2.8l0.3,0.1c1.3,0.5,6.8,2.6,13,2.6c6.7,0,12.6-2.4,13.2-2.7l0.1,0
			c0.3-0.1,6.4-2.8,13.7-2.8c7,0,12.9,2.5,13.7,2.8l0.1,0c0.1,0,6.2,2.7,13.2,2.7c7.1,0,13.2-2.7,13.3-2.7c0.3-0.1,6.4-2.8,13.7-2.8
			c7.3,0,13.5,2.7,13.7,2.8l0.3,0.1c1.3,0.5,6.8,2.6,12.9,2.6c7.1,0,13.2-2.7,13.3-2.7c0.3-0.1,6.4-2.8,13.7-2.8
			c7,0,12.9,2.5,13.7,2.8l0.1,0c0.1,0,6.2,2.7,13.2,2.7c7.1,0,13.2-2.7,13.3-2.7c0.3-0.1,6.4-2.8,13.7-2.8c7.3,0,13.5,2.7,13.7,2.8
			l0.3,0.1c1.3,0.5,6.8,2.6,13,2.6c6.7,0,12.6-2.4,13.2-2.7l0.1,0c0.3-0.1,6.4-2.8,13.7-2.8c7,0,12.9,2.5,13.7,2.8l0.1,0
			c0.1,0,6.2,2.7,13.2,2.7c6.7,0,12.6-2.4,13.2-2.7l0.1,0c0.3-0.1,6.4-2.8,13.7-2.8c7.3,0,13.5,2.7,13.7,2.8l0,0
			c0.5,0.2,6.5,2.7,13.2,2.7c7.1,0,13.2-2.7,13.3-2.7c0.3-0.1,6.4-2.8,13.7-2.8c7,0,12.9,2.5,13.7,2.8l0.1,0c0.1,0,6.2,2.7,13.2,2.7
			c6.7,0,12.6-2.4,13.2-2.7l0.1,0c0.3-0.1,6.4-2.8,13.7-2.8c7.3,0,13.5,2.7,13.7,2.8l0.3,0.1c1.3,0.5,6.8,2.6,13,2.6
			c7.1,0,13.2-2.7,13.3-2.7c0.3-0.1,6.4-2.8,13.7-2.8c7,0,12.9,2.5,13.7,2.8l0.1,0c0.1,0,6.2,2.7,13.2,2.7c7.1,0,13.2-2.7,13.3-2.7
			c0.3-0.1,6.4-2.8,13.7-2.8c7.3,0,13.5,2.7,13.7,2.8l0.3,0.1c1.3,0.5,6.8,2.6,13,2.6c6.7,0,12.6-2.4,13.2-2.7l0.1,0
			c0.3-0.1,6.4-2.8,13.7-2.8c7,0,12.9,2.5,13.7,2.8l0.1,0c0.1,0,6.2,2.7,13.2,2.7c7.1,0,13.2-2.7,13.3-2.7c0.3-0.1,6.4-2.8,13.7-2.8
			c7.3,0,13.5,2.7,13.7,2.8l0.3,0.1c1.3,0.5,6.8,2.6,12.9,2.6c7.1,0,13.2-2.7,13.3-2.7c0.3-0.1,6.4-2.8,13.7-2.8
			c7,0,12.9,2.5,13.7,2.8l0.1,0c0.1,0,6.2,2.7,13.2,2.7c7.1,0,13.2-2.7,13.3-2.7c0.3-0.1,6.4-2.8,13.7-2.8c7.3,0,13.5,2.7,13.7,2.8
			l-0.5,1c-0.1,0-6.2-2.7-13.2-2.7c-7.1,0-13.2,2.7-13.3,2.7C836.8,29.3,830.6,32.1,823.3,32.1z"/>
	</g>
	<g>
		<path class="st1" d="M823.3,38.5c-7.3,0-13.5-2.7-13.7-2.8c-0.1,0-6.2-2.7-13.3-2.7c-6.7,0-12.6,2.4-13.2,2.7l-0.1,0
			c-0.3,0.1-6.4,2.8-13.7,2.8c-7.3,0-13.5-2.7-13.7-2.8l-0.3-0.1c-1.4-0.6-6.8-2.6-12.9-2.6c-6.7,0-12.6,2.4-13.2,2.7l-0.1,0
			c-0.3,0.1-6.4,2.8-13.7,2.8c-7.3,0-13.5-2.7-13.7-2.8c-0.1,0-6.2-2.7-13.3-2.7c-6.6,0-12.4,2.4-13.2,2.7l-0.1,0
			c-0.3,0.1-6.4,2.8-13.7,2.8c-7.3,0-13.5-2.7-13.7-2.8l-0.3-0.1c-1.4-0.6-6.8-2.6-12.9-2.6c-6.7,0-12.6,2.4-13.2,2.7l-0.1,0
			c-0.3,0.1-6.4,2.8-13.7,2.8c-7.3,0-13.5-2.7-13.7-2.8c-0.1,0-6.2-2.7-13.3-2.7c-7.1,0-13.2,2.7-13.3,2.7
			c-0.3,0.1-6.4,2.8-13.7,2.8c-7.3,0-13.5-2.7-13.7-2.8l-0.3-0.1c-1.4-0.6-6.8-2.6-12.9-2.6c-6.6,0-12.4,2.4-13.2,2.7l-0.1,0
			c-0.3,0.1-6.4,2.8-13.7,2.8c-7.3,0-13.5-2.7-13.7-2.8c-0.1,0-6.2-2.7-13.3-2.7c-6.7,0-12.6,2.4-13.2,2.7l-0.1,0
			c-0.3,0.1-6.4,2.8-13.7,2.8c-7.3,0-13.5-2.7-13.7-2.8l-0.6-0.3c-1.7-0.7-6.9-2.5-12.6-2.5c-6.6,0-12.4,2.4-13.2,2.7l-0.1,0
			c-0.3,0.1-6.4,2.8-13.7,2.8c-7.3,0-13.5-2.7-13.7-2.8c-0.1,0-6.2-2.7-13.3-2.7c-6.6,0-12.4,2.4-13.2,2.7l-0.1,0
			c-0.3,0.1-6.4,2.8-13.7,2.8c-7.3,0-13.5-2.7-13.7-2.8l-0.3-0.1c-1.4-0.6-6.8-2.6-12.9-2.6c-6.7,0-12.6,2.4-13.2,2.7l-0.1,0
			c-0.3,0.1-6.4,2.8-13.7,2.8c-7.3,0-13.5-2.7-13.7-2.8c-0.1,0-6.2-2.7-13.3-2.7c-6.7,0-12.6,2.4-13.2,2.7l-0.1,0
			c-0.3,0.1-6.4,2.8-13.7,2.8c-7.3,0-13.5-2.7-13.7-2.8l-0.3-0.1c-1.4-0.6-6.8-2.6-12.9-2.6c-6.7,0-12.6,2.4-13.2,2.7l-0.1,0
			c-0.3,0.1-6.4,2.8-13.7,2.8c-7.3,0-13.5-2.7-13.7-2.8c-0.1,0-6.2-2.7-13.3-2.7c-6.6,0-12.4,2.4-13.2,2.7l-0.1,0
			c-0.3,0.1-6.4,2.8-13.7,2.8c-7.3,0-13.5-2.7-13.7-2.8l-0.3-0.1c-1.4-0.6-6.8-2.6-12.9-2.6c-6.6,0-12.4,2.4-13.2,2.7l-0.1,0
			c-0.3,0.1-6.4,2.8-13.7,2.8c-7.3,0-13.5-2.7-13.7-2.8c-0.1,0-6.2-2.7-13.3-2.7c-6.6,0-12.4,2.4-13.2,2.7l-0.1,0
			c-0.3,0.1-6.4,2.8-13.7,2.8c-7.3,0-13.5-2.7-13.7-2.8l0.5-1c0.1,0,6.2,2.7,13.2,2.7c6.6,0,12.4-2.4,13.2-2.7l0.1,0
			c0.3-0.1,6.4-2.8,13.7-2.8c7.3,0,13.5,2.7,13.7,2.8c0.1,0,6.2,2.7,13.3,2.7c6.6,0,12.4-2.4,13.2-2.7l0.1,0
			c0.3-0.1,6.4-2.8,13.7-2.8c7.3,0,13.5,2.7,13.7,2.8l0.3,0.1c1.4,0.6,6.8,2.6,12.9,2.6c6.6,0,12.4-2.4,13.2-2.7l0.1,0
			c0.3-0.1,6.4-2.8,13.7-2.8c7.3,0,13.5,2.7,13.7,2.8c0.1,0,6.2,2.7,13.3,2.7c6.7,0,12.6-2.4,13.2-2.7l0.1,0
			c0.3-0.1,6.4-2.8,13.7-2.8c7.3,0,13.5,2.7,13.7,2.8l0.3,0.1c1.4,0.6,6.8,2.6,12.9,2.6c6.7,0,12.6-2.4,13.2-2.7l0.1,0
			c0.3-0.1,6.4-2.8,13.7-2.8c7.3,0,13.5,2.7,13.7,2.8c0.1,0,6.2,2.7,13.3,2.7c6.7,0,12.6-2.4,13.2-2.7l0.1,0
			c0.3-0.1,6.4-2.8,13.7-2.8c7.3,0,13.5,2.7,13.7,2.8l0.3,0.1c1.4,0.6,6.8,2.6,12.9,2.6c6.6,0,12.4-2.4,13.2-2.7l0.1,0
			c0.3-0.1,6.4-2.8,13.7-2.8c7.3,0,13.5,2.7,13.7,2.8c0.1,0,6.2,2.7,13.3,2.7c6.6,0,12.4-2.4,13.2-2.7l0.1,0
			c0.3-0.1,6.4-2.8,13.7-2.8c7.3,0,13.5,2.7,13.7,2.8l0.6,0.3c1.7,0.7,6.9,2.5,12.6,2.5c6.7,0,12.6-2.4,13.2-2.7l0.1,0
			c0.3-0.1,6.4-2.8,13.7-2.8c7.3,0,13.5,2.7,13.7,2.8c0.1,0,6.2,2.7,13.3,2.7c6.6,0,12.4-2.4,13.2-2.7l0.1,0
			c0.3-0.1,6.4-2.8,13.7-2.8c7.3,0,13.5,2.7,13.7,2.8l0.3,0.1c1.4,0.6,6.8,2.6,12.9,2.6c7.1,0,13.2-2.7,13.3-2.7
			c0.3-0.1,6.4-2.8,13.7-2.8c7.3,0,13.5,2.7,13.7,2.8c0.1,0,6.2,2.7,13.3,2.7c6.7,0,12.6-2.4,13.2-2.7l0.1,0
			c0.3-0.1,6.4-2.8,13.7-2.8c7.3,0,13.5,2.7,13.7,2.8l0.3,0.1c1.4,0.6,6.8,2.6,12.9,2.6c6.6,0,12.4-2.4,13.2-2.7l0.1,0
			c0.3-0.1,6.4-2.8,13.7-2.8c7.3,0,13.5,2.7,13.7,2.8c0.1,0,6.2,2.7,13.3,2.7c6.7,0,12.6-2.4,13.2-2.7l0.1,0
			c0.3-0.1,6.4-2.8,13.7-2.8c7.3,0,13.5,2.7,13.7,2.8l0.3,0.1c1.4,0.6,6.8,2.6,12.9,2.6c6.7,0,12.6-2.4,13.2-2.7l0.1,0
			c0.3-0.1,6.4-2.8,13.7-2.8c7.3,0,13.5,2.7,13.7,2.8c0.1,0,6.2,2.7,13.3,2.7c6.7,0,12.6-2.4,13.2-2.7l0.1,0
			c0.3-0.1,6.4-2.8,13.7-2.8c7.3,0,13.5,2.7,13.7,2.8l-0.5,1c-0.1,0-6.2-2.7-13.2-2.7c-6.7,0-12.6,2.4-13.2,2.7l-0.1,0
			C836.8,35.8,830.6,38.5,823.3,38.5z"/>
	</g>
	<g>
		<path class="st1" d="M823.3,44.8c-7.3,0-13.5-2.7-13.7-2.8c-0.1,0-6.2-2.7-13.3-2.7c-6.7,0-12.6,2.4-13.2,2.7l-0.1,0
			c-0.3,0.1-6.4,2.8-13.7,2.8c-7.3,0-13.5-2.7-13.7-2.8l-0.3-0.1c-1.4-0.6-6.8-2.6-12.9-2.6c-6.7,0-12.6,2.4-13.2,2.7l-0.1,0
			c-0.3,0.1-6.4,2.8-13.7,2.8c-7.3,0-13.5-2.7-13.7-2.8c-0.1,0-6.2-2.7-13.3-2.7c-6.6,0-12.4,2.4-13.2,2.7l-0.1,0
			c-0.3,0.1-6.4,2.8-13.7,2.8c-7.3,0-13.5-2.7-13.7-2.8l-0.3-0.1c-1.4-0.6-6.8-2.6-12.9-2.6c-6.7,0-12.6,2.4-13.2,2.7l-0.1,0
			c-0.3,0.1-6.4,2.8-13.7,2.8c-7.3,0-13.5-2.7-13.7-2.8c-0.1,0-6.2-2.7-13.3-2.7c-7.1,0-13.2,2.7-13.3,2.7
			c-0.3,0.1-6.4,2.8-13.7,2.8c-7.3,0-13.5-2.7-13.7-2.8l-0.3-0.1c-1.4-0.6-6.8-2.6-12.9-2.6c-6.6,0-12.4,2.4-13.2,2.7l-0.1,0
			c-0.3,0.1-6.4,2.8-13.7,2.8c-7.3,0-13.5-2.7-13.7-2.8c-0.1,0-6.2-2.7-13.3-2.7c-6.7,0-12.6,2.4-13.2,2.7l-0.1,0
			c-0.3,0.1-6.4,2.8-13.7,2.8c-7.3,0-13.5-2.7-13.7-2.8l-0.6-0.3c-1.7-0.7-6.9-2.5-12.6-2.5c-6.6,0-12.4,2.4-13.2,2.7l-0.1,0
			c-0.3,0.1-6.4,2.8-13.7,2.8c-7.3,0-13.5-2.7-13.7-2.8c-0.1,0-6.2-2.7-13.3-2.7c-6.6,0-12.4,2.4-13.2,2.7l-0.1,0
			c-0.3,0.1-6.4,2.8-13.7,2.8c-7.3,0-13.5-2.7-13.7-2.8l-0.3-0.1c-1.4-0.6-6.8-2.6-12.9-2.6c-6.7,0-12.6,2.4-13.2,2.7l-0.1,0
			c-0.3,0.1-6.4,2.8-13.7,2.8c-7.3,0-13.5-2.7-13.7-2.8c-0.1,0-6.2-2.7-13.3-2.7c-6.7,0-12.6,2.4-13.2,2.7l-0.1,0
			c-0.3,0.1-6.4,2.8-13.7,2.8c-7.3,0-13.5-2.7-13.7-2.8l-0.3-0.1c-1.4-0.6-6.8-2.6-12.9-2.6c-6.7,0-12.6,2.4-13.2,2.7l-0.1,0
			c-0.3,0.1-6.4,2.8-13.7,2.8c-7.3,0-13.5-2.7-13.7-2.8c-0.1,0-6.2-2.7-13.3-2.7c-6.6,0-12.4,2.4-13.2,2.7l-0.1,0
			c-0.3,0.1-6.4,2.8-13.7,2.8c-7.3,0-13.5-2.7-13.7-2.8l-0.3-0.1c-1.4-0.6-6.8-2.6-12.9-2.6c-6.6,0-12.4,2.4-13.2,2.7l-0.1,0
			c-0.3,0.1-6.4,2.8-13.7,2.8c-7.3,0-13.5-2.7-13.7-2.8c-0.1,0-6.2-2.7-13.3-2.7c-6.6,0-12.4,2.4-13.2,2.7l-0.1,0
			c-0.3,0.1-6.4,2.8-13.7,2.8C6.4,44.8,0.3,42.1,0,42l0.5-1c0.1,0,6.2,2.7,13.2,2.7c6.6,0,12.4-2.4,13.2-2.7l0.1,0
			c0.3-0.1,6.4-2.8,13.7-2.8c7.3,0,13.5,2.7,13.7,2.8c0.1,0,6.2,2.7,13.3,2.7c6.6,0,12.4-2.4,13.2-2.7l0.1,0
			c0.3-0.1,6.4-2.8,13.7-2.8c7.3,0,13.5,2.7,13.7,2.8l0.3,0.1c1.4,0.6,6.8,2.6,12.9,2.6c6.6,0,12.4-2.4,13.2-2.7l0.1,0
			c0.3-0.1,6.4-2.8,13.7-2.8c7.3,0,13.5,2.7,13.7,2.8c0.1,0,6.2,2.7,13.3,2.7c6.7,0,12.6-2.4,13.2-2.7l0.1,0
			c0.3-0.1,6.4-2.8,13.7-2.8c7.3,0,13.5,2.7,13.7,2.8l0.3,0.1c1.4,0.6,6.8,2.6,12.9,2.6c6.7,0,12.6-2.4,13.2-2.7l0.1,0
			c0.3-0.1,6.4-2.8,13.7-2.8c7.3,0,13.5,2.7,13.7,2.8c0.1,0,6.2,2.7,13.3,2.7c6.7,0,12.6-2.4,13.2-2.7l0.1,0
			c0.3-0.1,6.4-2.8,13.7-2.8c7.3,0,13.5,2.7,13.7,2.8l0.3,0.1c1.4,0.6,6.8,2.6,12.9,2.6c6.6,0,12.4-2.4,13.2-2.7l0.1,0
			c0.3-0.1,6.4-2.8,13.7-2.8c7.3,0,13.5,2.7,13.7,2.8c0.1,0,6.2,2.7,13.3,2.7c6.6,0,12.4-2.4,13.2-2.7l0.1,0
			c0.3-0.1,6.4-2.8,13.7-2.8c7.3,0,13.5,2.7,13.7,2.8l0.6,0.3c1.7,0.7,6.9,2.5,12.6,2.5c6.7,0,12.6-2.4,13.2-2.7l0.1,0
			c0.3-0.1,6.4-2.8,13.7-2.8c7.3,0,13.5,2.7,13.7,2.8c0.1,0,6.2,2.7,13.3,2.7c6.6,0,12.4-2.4,13.2-2.7l0.1,0
			c0.3-0.1,6.4-2.8,13.7-2.8c7.3,0,13.5,2.7,13.7,2.8l0.3,0.1c1.4,0.6,6.8,2.6,12.9,2.6c7.1,0,13.2-2.7,13.3-2.7
			c0.3-0.1,6.4-2.8,13.7-2.8c7.3,0,13.5,2.7,13.7,2.8c0.1,0,6.2,2.7,13.3,2.7c6.7,0,12.6-2.4,13.2-2.7l0.1,0
			c0.3-0.1,6.4-2.8,13.7-2.8c7.3,0,13.5,2.7,13.7,2.8l0.3,0.1c1.4,0.6,6.8,2.6,12.9,2.6c6.6,0,12.4-2.4,13.2-2.7l0.1,0
			c0.3-0.1,6.4-2.8,13.7-2.8c7.3,0,13.5,2.7,13.7,2.8c0.1,0,6.2,2.7,13.3,2.7c6.7,0,12.6-2.4,13.2-2.7l0.1,0
			c0.3-0.1,6.4-2.8,13.7-2.8c7.3,0,13.5,2.7,13.7,2.8l0.3,0.1c1.4,0.6,6.8,2.6,12.9,2.6c6.7,0,12.6-2.4,13.2-2.7l0.1,0
			c0.3-0.1,6.4-2.8,13.7-2.8c7.3,0,13.5,2.7,13.7,2.8c0.1,0,6.2,2.7,13.3,2.7c6.7,0,12.6-2.4,13.2-2.7l0.1,0
			c0.3-0.1,6.4-2.8,13.7-2.8c7.3,0,13.5,2.7,13.7,2.8l-0.5,1c-0.1,0-6.2-2.7-13.2-2.7c-6.7,0-12.6,2.4-13.2,2.7l-0.1,0
			C836.8,42.1,830.6,44.8,823.3,44.8z"/>
	</g>
	<g>
		<path class="st1" d="M823.3,51.2c-7.3,0-13.5-2.7-13.7-2.8c-0.1,0-6.2-2.7-13.3-2.7c-6.7,0-12.6,2.4-13.2,2.7l-0.1,0
			c-0.3,0.1-6.4,2.8-13.7,2.8c-7.3,0-13.5-2.7-13.7-2.8l-0.3-0.1c-1.4-0.6-6.8-2.6-12.9-2.6c-6.7,0-12.6,2.4-13.2,2.7l-0.1,0
			c-0.3,0.1-6.4,2.8-13.7,2.8c-7.3,0-13.5-2.7-13.7-2.8c-0.1,0-6.2-2.7-13.3-2.7c-6.6,0-12.4,2.4-13.2,2.7l-0.1,0
			c-0.3,0.1-6.4,2.8-13.7,2.8c-7.3,0-13.5-2.7-13.7-2.8l-0.3-0.1c-1.4-0.6-6.8-2.6-12.9-2.6c-6.7,0-12.6,2.4-13.2,2.7l-0.1,0
			c-0.3,0.1-6.4,2.8-13.7,2.8c-7.3,0-13.5-2.7-13.7-2.8c-0.1,0-6.2-2.7-13.3-2.7c-7.1,0-13.2,2.7-13.3,2.7
			c-0.3,0.1-6.4,2.8-13.7,2.8c-7.3,0-13.5-2.7-13.7-2.8l-0.3-0.1c-1.4-0.6-6.8-2.6-12.9-2.6c-6.6,0-12.4,2.4-13.2,2.7l-0.1,0
			c-0.3,0.1-6.4,2.8-13.7,2.8c-7.3,0-13.5-2.7-13.7-2.8c-0.1,0-6.2-2.7-13.3-2.7c-6.7,0-12.6,2.4-13.2,2.7l-0.1,0
			c-0.3,0.1-6.4,2.8-13.7,2.8c-7.3,0-13.5-2.7-13.7-2.8l-0.6-0.3c-1.7-0.7-6.9-2.5-12.6-2.5c-6.6,0-12.4,2.4-13.2,2.7l-0.1,0
			c-0.3,0.1-6.4,2.8-13.7,2.8c-7.3,0-13.5-2.7-13.7-2.8c-0.1,0-6.2-2.7-13.3-2.7c-6.6,0-12.4,2.4-13.2,2.7l-0.1,0
			c-0.3,0.1-6.4,2.8-13.7,2.8c-7.3,0-13.5-2.7-13.7-2.8l-0.3-0.1c-1.4-0.6-6.8-2.6-12.9-2.6c-6.7,0-12.6,2.4-13.2,2.7l-0.1,0
			c-0.3,0.1-6.4,2.8-13.7,2.8c-7.3,0-13.5-2.7-13.7-2.8c-0.1,0-6.2-2.7-13.3-2.7c-6.7,0-12.6,2.4-13.2,2.7l-0.1,0
			c-0.3,0.1-6.4,2.8-13.7,2.8c-7.3,0-13.5-2.7-13.7-2.8l-0.3-0.1c-1.4-0.6-6.8-2.6-12.9-2.6c-6.7,0-12.6,2.4-13.2,2.7l-0.1,0
			c-0.3,0.1-6.4,2.8-13.7,2.8c-7.3,0-13.5-2.7-13.7-2.8c-0.1,0-6.2-2.7-13.3-2.7c-6.6,0-12.4,2.4-13.2,2.7l-0.1,0
			c-0.3,0.1-6.4,2.8-13.7,2.8c-7.3,0-13.5-2.7-13.7-2.8l-0.3-0.1c-1.4-0.6-6.8-2.6-12.9-2.6c-6.6,0-12.4,2.4-13.2,2.7l-0.1,0
			c-0.3,0.1-6.4,2.8-13.7,2.8c-7.3,0-13.5-2.7-13.7-2.8c-0.1,0-6.2-2.7-13.3-2.7c-6.6,0-12.4,2.4-13.2,2.7l-0.1,0
			c-0.3,0.1-6.4,2.8-13.7,2.8c-7.3,0-13.5-2.7-13.7-2.8l0.5-1c0.1,0,6.2,2.7,13.2,2.7c6.6,0,12.4-2.4,13.2-2.7l0.1,0
			c0.3-0.1,6.4-2.8,13.7-2.8c7.3,0,13.5,2.7,13.7,2.8c0.1,0,6.2,2.7,13.3,2.7c6.6,0,12.4-2.4,13.2-2.7l0.1,0
			c0.3-0.1,6.4-2.8,13.7-2.8c7.3,0,13.5,2.7,13.7,2.8l0.3,0.1c1.4,0.6,6.8,2.6,12.9,2.6c6.6,0,12.4-2.4,13.2-2.7l0.1,0
			c0.3-0.1,6.4-2.8,13.7-2.8c7.3,0,13.5,2.7,13.7,2.8c0.1,0,6.2,2.7,13.3,2.7c6.7,0,12.6-2.4,13.2-2.7l0.1,0
			c0.3-0.1,6.4-2.8,13.7-2.8c7.3,0,13.5,2.7,13.7,2.8l0.3,0.1c1.4,0.6,6.8,2.6,12.9,2.6c6.7,0,12.6-2.4,13.2-2.7l0.1,0
			c0.3-0.1,6.4-2.8,13.7-2.8c7.3,0,13.5,2.7,13.7,2.8c0.1,0,6.2,2.7,13.3,2.7c6.7,0,12.6-2.4,13.2-2.7l0.1,0
			c0.3-0.1,6.4-2.8,13.7-2.8c7.3,0,13.5,2.7,13.7,2.8l0.3,0.1c1.4,0.6,6.8,2.6,12.9,2.6c6.6,0,12.4-2.4,13.2-2.7l0.1,0
			c0.3-0.1,6.4-2.8,13.7-2.8c7.3,0,13.5,2.7,13.7,2.8c0.1,0,6.2,2.7,13.3,2.7c6.6,0,12.4-2.4,13.2-2.7l0.1,0
			c0.3-0.1,6.4-2.8,13.7-2.8c7.3,0,13.5,2.7,13.7,2.8l0.6,0.3c1.7,0.7,6.9,2.5,12.6,2.5c6.7,0,12.6-2.4,13.2-2.7l0.1,0
			c0.3-0.1,6.4-2.8,13.7-2.8c7.3,0,13.5,2.7,13.7,2.8c0.1,0,6.2,2.7,13.3,2.7c6.6,0,12.4-2.4,13.2-2.7l0.1,0
			c0.3-0.1,6.4-2.8,13.7-2.8c7.3,0,13.5,2.7,13.7,2.8l0.3,0.1c1.4,0.6,6.8,2.6,12.9,2.6c7.1,0,13.2-2.7,13.3-2.7
			c0.3-0.1,6.4-2.8,13.7-2.8c7.3,0,13.5,2.7,13.7,2.8c0.1,0,6.2,2.7,13.3,2.7c6.7,0,12.6-2.4,13.2-2.7l0.1,0
			c0.3-0.1,6.4-2.8,13.7-2.8c7.3,0,13.5,2.7,13.7,2.8l0.3,0.1c1.4,0.6,6.8,2.6,12.9,2.6c6.6,0,12.4-2.4,13.2-2.7l0.1,0
			c0.3-0.1,6.4-2.8,13.7-2.8c7.3,0,13.5,2.7,13.7,2.8c0.1,0,6.2,2.7,13.3,2.7c6.7,0,12.6-2.4,13.2-2.7l0.1,0
			c0.3-0.1,6.4-2.8,13.7-2.8c7.3,0,13.5,2.7,13.7,2.8l0.3,0.1c1.4,0.6,6.8,2.6,12.9,2.6c6.7,0,12.6-2.4,13.2-2.7l0.1,0
			c0.3-0.1,6.4-2.8,13.7-2.8c7.3,0,13.5,2.7,13.7,2.8c0.1,0,6.2,2.7,13.3,2.7c6.7,0,12.6-2.4,13.2-2.7l0.1,0
			c0.3-0.1,6.4-2.8,13.7-2.8c7.3,0,13.5,2.7,13.7,2.8l-0.5,1c-0.1,0-6.2-2.7-13.2-2.7c-6.7,0-12.6,2.4-13.2,2.7l-0.1,0
			C836.8,48.5,830.6,51.2,823.3,51.2z"/>
	</g>
	<g>
		<path class="st1" d="M823.3,57.5c-7.3,0-13.5-2.7-13.7-2.8c-0.1,0-6.2-2.7-13.3-2.7c-6.7,0-12.6,2.4-13.2,2.7l-0.1,0
			c-0.3,0.1-6.4,2.8-13.7,2.8c-7.3,0-13.5-2.7-13.7-2.8l-0.3-0.1c-1.4-0.6-6.8-2.6-12.9-2.6c-6.7,0-12.6,2.4-13.2,2.7l-0.1,0
			c-0.3,0.1-6.4,2.8-13.7,2.8c-7.3,0-13.5-2.7-13.7-2.8c-0.1,0-6.2-2.7-13.3-2.7c-6.6,0-12.4,2.4-13.2,2.7l-0.1,0
			c-0.3,0.1-6.4,2.8-13.7,2.8c-7.3,0-13.5-2.7-13.7-2.8l-0.3-0.1c-1.4-0.6-6.8-2.6-12.9-2.6c-6.7,0-12.6,2.4-13.2,2.7l-0.1,0
			c-0.3,0.1-6.4,2.8-13.7,2.8c-7.3,0-13.5-2.7-13.7-2.8c-0.1,0-6.2-2.7-13.3-2.7c-7.1,0-13.2,2.7-13.3,2.7
			c-0.3,0.1-6.4,2.8-13.7,2.8c-7.3,0-13.5-2.7-13.7-2.8l-0.3-0.1c-1.4-0.6-6.8-2.6-12.9-2.6c-6.6,0-12.4,2.4-13.2,2.7l-0.1,0
			c-0.3,0.1-6.4,2.8-13.7,2.8c-7.3,0-13.5-2.7-13.7-2.8c-0.1,0-6.2-2.7-13.3-2.7c-6.7,0-12.6,2.4-13.2,2.7l-0.1,0
			c-0.3,0.1-6.4,2.8-13.7,2.8c-7.3,0-13.5-2.7-13.7-2.8l-0.6-0.3c-1.7-0.7-6.9-2.5-12.6-2.5c-6.6,0-12.4,2.4-13.2,2.7l-0.1,0
			c-0.3,0.1-6.4,2.8-13.7,2.8c-7.3,0-13.5-2.7-13.7-2.8c-0.1,0-6.2-2.7-13.3-2.7c-6.6,0-12.4,2.4-13.2,2.7l-0.1,0
			c-0.3,0.1-6.4,2.8-13.7,2.8c-7.3,0-13.5-2.7-13.7-2.8l-0.3-0.1c-1.4-0.6-6.8-2.6-12.9-2.6c-6.7,0-12.6,2.4-13.2,2.7l-0.1,0
			c-0.3,0.1-6.4,2.8-13.7,2.8c-7.3,0-13.5-2.7-13.7-2.8c-0.1,0-6.2-2.7-13.3-2.7c-6.7,0-12.6,2.4-13.2,2.7l-0.1,0
			c-0.3,0.1-6.4,2.8-13.7,2.8c-7.3,0-13.5-2.7-13.7-2.8l-0.3-0.1c-1.4-0.6-6.8-2.6-12.9-2.6c-6.7,0-12.6,2.4-13.2,2.7l-0.1,0
			c-0.3,0.1-6.4,2.8-13.7,2.8c-7.3,0-13.5-2.7-13.7-2.8c-0.1,0-6.2-2.7-13.3-2.7c-6.6,0-12.4,2.4-13.2,2.7l-0.1,0
			c-0.3,0.1-6.4,2.8-13.7,2.8c-7.3,0-13.5-2.7-13.7-2.8l-0.3-0.1c-1.4-0.6-6.8-2.6-12.9-2.6c-6.6,0-12.4,2.4-13.2,2.7l-0.1,0
			c-0.3,0.1-6.4,2.8-13.7,2.8c-7.3,0-13.5-2.7-13.7-2.8c-0.1,0-6.2-2.7-13.3-2.7c-6.6,0-12.4,2.4-13.2,2.7l-0.1,0
			c-0.3,0.1-6.4,2.8-13.7,2.8c-7.3,0-13.5-2.7-13.7-2.8l0.5-1c0.1,0,6.2,2.7,13.2,2.7c6.6,0,12.4-2.4,13.2-2.7l0.1,0
			c0.3-0.1,6.4-2.8,13.7-2.8c7.3,0,13.5,2.7,13.7,2.8c0.1,0,6.2,2.7,13.3,2.7c6.6,0,12.4-2.4,13.2-2.7l0.1,0
			c0.3-0.1,6.4-2.8,13.7-2.8c7.3,0,13.5,2.7,13.7,2.8l0.3,0.1c1.4,0.6,6.8,2.6,12.9,2.6c6.6,0,12.4-2.4,13.2-2.7l0.1,0
			c0.3-0.1,6.4-2.8,13.7-2.8c7.3,0,13.5,2.7,13.7,2.8c0.1,0,6.2,2.7,13.3,2.7c6.7,0,12.6-2.4,13.2-2.7l0.1,0
			c0.3-0.1,6.4-2.8,13.7-2.8c7.3,0,13.5,2.7,13.7,2.8l0.3,0.1c1.4,0.6,6.8,2.6,12.9,2.6c6.7,0,12.6-2.4,13.2-2.7l0.1,0
			c0.3-0.1,6.4-2.8,13.7-2.8c7.3,0,13.5,2.7,13.7,2.8c0.1,0,6.2,2.7,13.3,2.7c6.7,0,12.6-2.4,13.2-2.7l0.1,0
			c0.3-0.1,6.4-2.8,13.7-2.8c7.3,0,13.5,2.7,13.7,2.8l0.3,0.1c1.4,0.6,6.8,2.6,12.9,2.6c6.6,0,12.4-2.4,13.2-2.7l0.1,0
			c0.3-0.1,6.4-2.8,13.7-2.8c7.3,0,13.5,2.7,13.7,2.8c0.1,0,6.2,2.7,13.3,2.7c6.6,0,12.4-2.4,13.2-2.7l0.1,0
			c0.3-0.1,6.4-2.8,13.7-2.8c7.3,0,13.5,2.7,13.7,2.8l0.6,0.3c1.7,0.7,6.9,2.5,12.6,2.5c6.7,0,12.6-2.4,13.2-2.7l0.1,0
			c0.3-0.1,6.4-2.8,13.7-2.8c7.3,0,13.5,2.7,13.7,2.8c0.1,0,6.2,2.7,13.3,2.7c6.6,0,12.4-2.4,13.2-2.7l0.1,0
			c0.3-0.1,6.4-2.8,13.7-2.8c7.3,0,13.5,2.7,13.7,2.8l0.3,0.1c1.4,0.6,6.8,2.6,12.9,2.6c7.1,0,13.2-2.7,13.3-2.7
			c0.3-0.1,6.4-2.8,13.7-2.8c7.3,0,13.5,2.7,13.7,2.8c0.1,0,6.2,2.7,13.3,2.7c6.7,0,12.6-2.4,13.2-2.7l0.1,0
			c0.3-0.1,6.4-2.8,13.7-2.8c7.3,0,13.5,2.7,13.7,2.8l0.3,0.1c1.4,0.6,6.8,2.6,12.9,2.6c6.6,0,12.4-2.4,13.2-2.7l0.1,0
			c0.3-0.1,6.4-2.8,13.7-2.8c7.3,0,13.5,2.7,13.7,2.8c0.1,0,6.2,2.7,13.3,2.7c6.7,0,12.6-2.4,13.2-2.7l0.1,0
			c0.3-0.1,6.4-2.8,13.7-2.8c7.3,0,13.5,2.7,13.7,2.8l0.3,0.1c1.4,0.6,6.8,2.6,12.9,2.6c6.7,0,12.6-2.4,13.2-2.7l0.1,0
			c0.3-0.1,6.4-2.8,13.7-2.8c7.3,0,13.5,2.7,13.7,2.8c0.1,0,6.2,2.7,13.3,2.7c6.7,0,12.6-2.4,13.2-2.7l0.1,0
			c0.3-0.1,6.4-2.8,13.7-2.8c7.3,0,13.5,2.7,13.7,2.8l-0.5,1c-0.1,0-6.2-2.7-13.2-2.7c-6.7,0-12.6,2.4-13.2,2.7l-0.1,0
			C836.8,54.8,830.6,57.5,823.3,57.5z"/>
	</g>
	<g>
		<path class="st1" d="M823.3,63.9c-7,0-12.9-2.5-13.7-2.8l-0.1,0c-0.1,0-6.2-2.7-13.2-2.7c-7.1,0-13.2,2.7-13.3,2.7
			c-0.3,0.1-6.4,2.8-13.7,2.8c-7.3,0-13.5-2.7-13.7-2.8l-0.3-0.1c-1.3-0.5-6.8-2.6-12.9-2.6c-7.1,0-13.2,2.7-13.3,2.7
			c-0.3,0.1-6.4,2.8-13.7,2.8c-7,0-12.9-2.5-13.7-2.8l-0.1,0c-0.1,0-6.2-2.7-13.2-2.7c-6.7,0-12.6,2.4-13.2,2.7l-0.1,0
			c-0.3,0.1-6.4,2.8-13.7,2.8c-7.3,0-13.5-2.7-13.7-2.8l-0.3-0.1c-1.3-0.5-6.8-2.6-13-2.6c-7.1,0-13.2,2.7-13.3,2.7
			c-0.3,0.1-6.4,2.8-13.7,2.8c-7,0-12.9-2.5-13.7-2.8l-0.1,0c-0.1,0-6.2-2.7-13.2-2.7c-7.1,0-13.2,2.7-13.3,2.7
			c-0.3,0.1-6.4,2.8-13.7,2.8c-7.3,0-13.5-2.7-13.7-2.8l-0.3-0.1c-1.3-0.5-6.8-2.6-13-2.6c-6.7,0-12.6,2.4-13.2,2.7l-0.1,0
			c-0.3,0.1-6.4,2.8-13.7,2.8c-7,0-12.9-2.5-13.7-2.8l-0.1,0c-0.1,0-6.2-2.7-13.2-2.7c-7.1,0-13.2,2.7-13.3,2.7
			c-0.3,0.1-6.4,2.8-13.7,2.8c-7.3,0-13.5-2.7-13.7-2.8l0,0c-0.5-0.2-6.5-2.7-13.2-2.7c-6.7,0-12.6,2.4-13.2,2.7l-0.1,0
			c-0.3,0.1-6.4,2.8-13.7,2.8c-7,0-12.9-2.5-13.7-2.8l-0.1,0c-0.1,0-6.2-2.7-13.2-2.7c-6.7,0-12.6,2.4-13.2,2.7l-0.1,0
			c-0.3,0.1-6.4,2.8-13.7,2.8c-7.3,0-13.5-2.7-13.7-2.8l-0.3-0.1c-1.3-0.5-6.8-2.6-13-2.6c-7.1,0-13.2,2.7-13.3,2.7
			c-0.3,0.1-6.4,2.8-13.7,2.8c-7,0-12.9-2.5-13.7-2.8l-0.1,0c-0.1,0-6.2-2.7-13.2-2.7c-7.1,0-13.2,2.7-13.3,2.7
			c-0.3,0.1-6.4,2.8-13.7,2.8c-7.3,0-13.5-2.7-13.7-2.8l-0.3-0.1c-1.3-0.5-6.8-2.6-12.9-2.6c-7.1,0-13.2,2.7-13.3,2.7
			c-0.3,0.1-6.4,2.8-13.7,2.8c-7,0-12.9-2.5-13.7-2.8l-0.1,0c-0.1,0-6.2-2.7-13.2-2.7c-6.7,0-12.6,2.4-13.2,2.7l-0.1,0
			c-0.3,0.1-6.4,2.8-13.7,2.8c-7.3,0-13.5-2.7-13.7-2.8l-0.3-0.1c-1.3-0.5-6.8-2.6-13-2.6c-6.7,0-12.6,2.4-13.2,2.7l-0.1,0
			c-0.3,0.1-6.4,2.8-13.7,2.8c-7,0-12.9-2.5-13.7-2.8l-0.1,0c-0.1,0-6.2-2.7-13.2-2.7c-6.7,0-12.6,2.4-13.2,2.7l-0.1,0
			c-0.3,0.1-6.4,2.8-13.7,2.8c-7.3,0-13.5-2.7-13.7-2.8l0.5-1c0.1,0,6.2,2.7,13.2,2.7c6.7,0,12.6-2.4,13.2-2.7l0.1,0
			c0.3-0.1,6.4-2.8,13.7-2.8c7,0,12.9,2.5,13.7,2.8l0.1,0c0.1,0,6.2,2.7,13.2,2.7c6.7,0,12.6-2.4,13.2-2.7l0.1,0
			c0.3-0.1,6.4-2.8,13.7-2.8c7.3,0,13.5,2.7,13.7,2.8l0.3,0.1c1.3,0.5,6.8,2.6,13,2.6c6.7,0,12.6-2.4,13.2-2.7l0.1,0
			c0.3-0.1,6.4-2.8,13.7-2.8c7,0,12.9,2.5,13.7,2.8l0.1,0c0.1,0,6.2,2.7,13.2,2.7c7.1,0,13.2-2.7,13.3-2.7c0.3-0.1,6.4-2.8,13.7-2.8
			c7.3,0,13.5,2.7,13.7,2.8l0.3,0.1c1.3,0.5,6.8,2.6,12.9,2.6c7.1,0,13.2-2.7,13.3-2.7c0.3-0.1,6.4-2.8,13.7-2.8
			c7,0,12.9,2.5,13.7,2.8l0.1,0c0.1,0,6.2,2.7,13.2,2.7c7.1,0,13.2-2.7,13.3-2.7c0.3-0.1,6.4-2.8,13.7-2.8c7.3,0,13.5,2.7,13.7,2.8
			l0.3,0.1c1.3,0.5,6.8,2.6,13,2.6c6.7,0,12.6-2.4,13.2-2.7l0.1,0c0.3-0.1,6.4-2.8,13.7-2.8c7,0,12.9,2.5,13.7,2.8l0.1,0
			c0.1,0,6.2,2.7,13.2,2.7c6.7,0,12.6-2.4,13.2-2.7l0.1,0c0.3-0.1,6.4-2.8,13.7-2.8c7.3,0,13.5,2.7,13.7,2.8l0,0
			c0.5,0.2,6.5,2.7,13.2,2.7c7.1,0,13.2-2.7,13.3-2.7c0.3-0.1,6.4-2.8,13.7-2.8c7,0,12.9,2.5,13.7,2.8l0.1,0c0.1,0,6.2,2.7,13.2,2.7
			c6.7,0,12.6-2.4,13.2-2.7l0.1,0c0.3-0.1,6.4-2.8,13.7-2.8c7.3,0,13.5,2.7,13.7,2.8l0.3,0.1c1.3,0.5,6.8,2.6,13,2.6
			c7.1,0,13.2-2.7,13.3-2.7c0.3-0.1,6.4-2.8,13.7-2.8c7,0,12.9,2.5,13.7,2.8l0.1,0c0.1,0,6.2,2.7,13.2,2.7c7.1,0,13.2-2.7,13.3-2.7
			c0.3-0.1,6.4-2.8,13.7-2.8c7.3,0,13.5,2.7,13.7,2.8l0.3,0.1c1.3,0.5,6.8,2.6,13,2.6c6.7,0,12.6-2.4,13.2-2.7l0.1,0
			c0.3-0.1,6.4-2.8,13.7-2.8c7,0,12.9,2.5,13.7,2.8l0.1,0c0.1,0,6.2,2.7,13.2,2.7c7.1,0,13.2-2.7,13.3-2.7c0.3-0.1,6.4-2.8,13.7-2.8
			c7.3,0,13.5,2.7,13.7,2.8l0.3,0.1c1.3,0.5,6.8,2.6,12.9,2.6c7.1,0,13.2-2.7,13.3-2.7c0.3-0.1,6.4-2.8,13.7-2.8
			c7,0,12.9,2.5,13.7,2.8l0.1,0c0.1,0,6.2,2.7,13.2,2.7c7.1,0,13.2-2.7,13.3-2.7c0.3-0.1,6.4-2.8,13.7-2.8c7.3,0,13.5,2.7,13.7,2.8
			l-0.5,1c-0.1,0-6.2-2.7-13.2-2.7c-7.1,0-13.2,2.7-13.3,2.7C836.8,61.2,830.6,63.9,823.3,63.9z"/>
	</g>
	<g>
		<path class="st1" d="M823.3,70.3c-7,0-12.9-2.5-13.7-2.8l-0.1,0c-0.1,0-6.2-2.7-13.2-2.7c-7.1,0-13.2,2.7-13.3,2.7
			c-0.3,0.1-6.4,2.8-13.7,2.8c-7.3,0-13.5-2.7-13.7-2.8l-0.3-0.1c-1.3-0.5-6.8-2.6-12.9-2.6c-7.1,0-13.2,2.7-13.3,2.7
			c-0.3,0.1-6.4,2.8-13.7,2.8c-7,0-12.9-2.5-13.7-2.8l-0.1,0c-0.1,0-6.2-2.7-13.2-2.7c-6.7,0-12.6,2.4-13.2,2.7l-0.1,0
			c-0.3,0.1-6.4,2.8-13.7,2.8c-7.3,0-13.5-2.7-13.7-2.8l-0.3-0.1c-1.3-0.5-6.8-2.6-13-2.6c-7.1,0-13.2,2.7-13.3,2.7
			c-0.3,0.1-6.4,2.8-13.7,2.8c-7,0-12.9-2.5-13.7-2.8l-0.1,0c-0.1,0-6.2-2.7-13.2-2.7c-7.1,0-13.2,2.7-13.3,2.7
			c-0.3,0.1-6.4,2.8-13.7,2.8c-7.3,0-13.5-2.7-13.7-2.8l-0.3-0.1c-1.3-0.5-6.8-2.6-13-2.6c-6.7,0-12.6,2.4-13.2,2.7l-0.1,0
			c-0.3,0.1-6.4,2.8-13.7,2.8c-7,0-12.9-2.5-13.7-2.8l-0.1,0c-0.1,0-6.2-2.7-13.2-2.7c-7.1,0-13.2,2.7-13.3,2.7
			c-0.3,0.1-6.4,2.8-13.7,2.8c-7.3,0-13.5-2.7-13.7-2.8l0,0c-0.5-0.2-6.5-2.7-13.2-2.7c-6.7,0-12.6,2.4-13.2,2.7l-0.1,0
			c-0.3,0.1-6.4,2.8-13.7,2.8c-7,0-12.9-2.5-13.7-2.8l-0.1,0c-0.1,0-6.2-2.7-13.2-2.7c-6.7,0-12.6,2.4-13.2,2.7l-0.1,0
			c-0.3,0.1-6.4,2.8-13.7,2.8c-7.3,0-13.5-2.7-13.7-2.8l-0.3-0.1c-1.3-0.5-6.8-2.6-13-2.6c-7.1,0-13.2,2.7-13.3,2.7
			c-0.3,0.1-6.4,2.8-13.7,2.8c-7,0-12.9-2.5-13.7-2.8l-0.1,0c-0.1,0-6.2-2.7-13.2-2.7c-7.1,0-13.2,2.7-13.3,2.7
			c-0.3,0.1-6.4,2.8-13.7,2.8c-7.3,0-13.5-2.7-13.7-2.8l-0.3-0.1c-1.3-0.5-6.8-2.6-12.9-2.6c-7.1,0-13.2,2.7-13.3,2.7
			c-0.3,0.1-6.4,2.8-13.7,2.8c-7,0-12.9-2.5-13.7-2.8l-0.1,0c-0.1,0-6.2-2.7-13.2-2.7c-6.7,0-12.6,2.4-13.2,2.7l-0.1,0
			c-0.3,0.1-6.4,2.8-13.7,2.8c-7.3,0-13.5-2.7-13.7-2.8l-0.3-0.1c-1.3-0.5-6.8-2.6-13-2.6c-6.7,0-12.6,2.4-13.2,2.7l-0.1,0
			c-0.3,0.1-6.4,2.8-13.7,2.8c-7,0-12.9-2.5-13.7-2.8l-0.1,0c-0.1,0-6.2-2.7-13.2-2.7c-6.7,0-12.6,2.4-13.2,2.7l-0.1,0
			c-0.3,0.1-6.4,2.8-13.7,2.8c-7.3,0-13.5-2.7-13.7-2.8l0.5-1c0.1,0,6.2,2.7,13.2,2.7c6.7,0,12.6-2.4,13.2-2.7l0.1,0
			c0.3-0.1,6.4-2.8,13.7-2.8c7,0,12.9,2.5,13.7,2.8l0.1,0c0.1,0,6.2,2.7,13.2,2.7c6.7,0,12.6-2.4,13.2-2.7l0.1,0
			c0.3-0.1,6.4-2.8,13.7-2.8c7.3,0,13.5,2.7,13.7,2.8l0.3,0.1c1.3,0.5,6.8,2.6,13,2.6c6.7,0,12.6-2.4,13.2-2.7l0.1,0
			c0.3-0.1,6.4-2.8,13.7-2.8c7,0,12.9,2.5,13.7,2.8l0.1,0c0.1,0,6.2,2.7,13.2,2.7c7.1,0,13.2-2.7,13.3-2.7c0.3-0.1,6.4-2.8,13.7-2.8
			c7.3,0,13.5,2.7,13.7,2.8l0.3,0.1c1.3,0.5,6.8,2.6,12.9,2.6c7.1,0,13.2-2.7,13.3-2.7c0.3-0.1,6.4-2.8,13.7-2.8
			c7,0,12.9,2.5,13.7,2.8l0.1,0c0.1,0,6.2,2.7,13.2,2.7c7.1,0,13.2-2.7,13.3-2.7c0.3-0.1,6.4-2.8,13.7-2.8c7.3,0,13.5,2.7,13.7,2.8
			l0.3,0.1c1.3,0.5,6.8,2.6,13,2.6c6.7,0,12.6-2.4,13.2-2.7l0.1,0c0.3-0.1,6.4-2.8,13.7-2.8c7,0,12.9,2.5,13.7,2.8l0.1,0
			c0.1,0,6.2,2.7,13.2,2.7c6.7,0,12.6-2.4,13.2-2.7l0.1,0c0.3-0.1,6.4-2.8,13.7-2.8c7.3,0,13.5,2.7,13.7,2.8l0,0
			c0.5,0.2,6.5,2.7,13.2,2.7c7.1,0,13.2-2.7,13.3-2.7c0.3-0.1,6.4-2.8,13.7-2.8c7,0,12.9,2.5,13.7,2.8l0.1,0c0.1,0,6.2,2.7,13.2,2.7
			c6.7,0,12.6-2.4,13.2-2.7l0.1,0c0.3-0.1,6.4-2.8,13.7-2.8c7.3,0,13.5,2.7,13.7,2.8l0.3,0.1c1.3,0.5,6.8,2.6,13,2.6
			c7.1,0,13.2-2.7,13.3-2.7c0.3-0.1,6.4-2.8,13.7-2.8c7,0,12.9,2.5,13.7,2.8l0.1,0c0.1,0,6.2,2.7,13.2,2.7c7.1,0,13.2-2.7,13.3-2.7
			c0.3-0.1,6.4-2.8,13.7-2.8c7.3,0,13.5,2.7,13.7,2.8l0.3,0.1c1.3,0.5,6.8,2.6,13,2.6c6.7,0,12.6-2.4,13.2-2.7l0.1,0
			c0.3-0.1,6.4-2.8,13.7-2.8c7,0,12.9,2.5,13.7,2.8l0.1,0c0.1,0,6.2,2.7,13.2,2.7c7.1,0,13.2-2.7,13.3-2.7c0.3-0.1,6.4-2.8,13.7-2.8
			c7.3,0,13.5,2.7,13.7,2.8l0.3,0.1c1.3,0.5,6.8,2.6,12.9,2.6c7.1,0,13.2-2.7,13.3-2.7c0.3-0.1,6.4-2.8,13.7-2.8
			c7,0,12.9,2.5,13.7,2.8l0.1,0c0.1,0,6.2,2.7,13.2,2.7c7.1,0,13.2-2.7,13.3-2.7c0.3-0.1,6.4-2.8,13.7-2.8c7.3,0,13.5,2.7,13.7,2.8
			l-0.5,1c-0.1,0-6.2-2.7-13.2-2.7c-7.1,0-13.2,2.7-13.3,2.7C836.8,67.6,830.6,70.3,823.3,70.3z"/>
	</g>
	<g>
		<path class="st1" d="M823.3,76.6c-7.3,0-13.5-2.7-13.7-2.8c-0.1,0-6.2-2.7-13.3-2.7c-6.7,0-12.6,2.4-13.2,2.7l-0.1,0
			c-0.3,0.1-6.4,2.8-13.7,2.8c-7.3,0-13.5-2.7-13.7-2.8l-0.3-0.1c-1.4-0.6-6.8-2.6-12.9-2.6c-6.7,0-12.6,2.4-13.2,2.7l-0.1,0
			c-0.3,0.1-6.4,2.8-13.7,2.8c-7.3,0-13.5-2.7-13.7-2.8c-0.1,0-6.2-2.7-13.3-2.7c-6.6,0-12.4,2.4-13.2,2.7l-0.1,0
			c-0.3,0.1-6.4,2.8-13.7,2.8c-7.3,0-13.5-2.7-13.7-2.8l-0.3-0.1c-1.4-0.6-6.8-2.6-12.9-2.6c-6.7,0-12.6,2.4-13.2,2.7l-0.1,0
			c-0.3,0.1-6.4,2.8-13.7,2.8c-7.3,0-13.5-2.7-13.7-2.8c-0.1,0-6.2-2.7-13.3-2.7c-7.1,0-13.2,2.7-13.3,2.7
			c-0.3,0.1-6.4,2.8-13.7,2.8c-7.3,0-13.5-2.7-13.7-2.8l-0.3-0.1c-1.4-0.6-6.8-2.6-12.9-2.6c-6.6,0-12.4,2.4-13.2,2.7l-0.1,0
			c-0.3,0.1-6.4,2.8-13.7,2.8c-7.3,0-13.5-2.7-13.7-2.8c-0.1,0-6.2-2.7-13.3-2.7c-6.7,0-12.6,2.4-13.2,2.7l-0.1,0
			c-0.3,0.1-6.4,2.8-13.7,2.8c-7.3,0-13.5-2.7-13.7-2.8l-0.6-0.3c-1.7-0.7-6.9-2.5-12.6-2.5c-6.6,0-12.4,2.4-13.2,2.7l-0.1,0
			c-0.3,0.1-6.4,2.8-13.7,2.8c-7.3,0-13.5-2.7-13.7-2.8c-0.1,0-6.2-2.7-13.3-2.7c-6.6,0-12.4,2.4-13.2,2.7l-0.1,0
			c-0.3,0.1-6.4,2.8-13.7,2.8c-7.3,0-13.5-2.7-13.7-2.8l-0.3-0.1c-1.4-0.6-6.8-2.6-12.9-2.6c-6.7,0-12.6,2.4-13.2,2.7l-0.1,0
			c-0.3,0.1-6.4,2.8-13.7,2.8c-7.3,0-13.5-2.7-13.7-2.8c-0.1,0-6.2-2.7-13.3-2.7c-6.7,0-12.6,2.4-13.2,2.7l-0.1,0
			c-0.3,0.1-6.4,2.8-13.7,2.8c-7.3,0-13.5-2.7-13.7-2.8l-0.3-0.1c-1.4-0.6-6.8-2.6-12.9-2.6c-6.7,0-12.6,2.4-13.2,2.7l-0.1,0
			c-0.3,0.1-6.4,2.8-13.7,2.8c-7.3,0-13.5-2.7-13.7-2.8c-0.1,0-6.2-2.7-13.3-2.7c-6.6,0-12.4,2.4-13.2,2.7l-0.1,0
			c-0.3,0.1-6.4,2.8-13.7,2.8c-7.3,0-13.5-2.7-13.7-2.8l-0.3-0.1c-1.4-0.6-6.8-2.6-12.9-2.6c-6.6,0-12.4,2.4-13.2,2.7l-0.1,0
			c-0.3,0.1-6.4,2.8-13.7,2.8c-7.3,0-13.5-2.7-13.7-2.8c-0.1,0-6.2-2.7-13.3-2.7c-6.6,0-12.4,2.4-13.2,2.7l-0.1,0
			c-0.3,0.1-6.4,2.8-13.7,2.8c-7.3,0-13.5-2.7-13.7-2.8l0.5-1c0.1,0,6.2,2.7,13.2,2.7c6.6,0,12.4-2.4,13.2-2.7l0.1,0
			c0.3-0.1,6.4-2.8,13.7-2.8c7.3,0,13.5,2.7,13.7,2.8c0.1,0,6.2,2.7,13.3,2.7c6.6,0,12.4-2.4,13.2-2.7l0.1,0
			c0.3-0.1,6.4-2.8,13.7-2.8c7.3,0,13.5,2.7,13.7,2.8l0.3,0.1c1.4,0.6,6.8,2.6,12.9,2.6c6.6,0,12.4-2.4,13.2-2.7l0.1,0
			c0.3-0.1,6.4-2.8,13.7-2.8c7.3,0,13.5,2.7,13.7,2.8c0.1,0,6.2,2.7,13.3,2.7c6.7,0,12.6-2.4,13.2-2.7l0.1,0
			c0.3-0.1,6.4-2.8,13.7-2.8c7.3,0,13.5,2.7,13.7,2.8l0.3,0.1c1.4,0.6,6.8,2.6,12.9,2.6c6.7,0,12.6-2.4,13.2-2.7l0.1,0
			c0.3-0.1,6.4-2.8,13.7-2.8c7.3,0,13.5,2.7,13.7,2.8c0.1,0,6.2,2.7,13.3,2.7c6.7,0,12.6-2.4,13.2-2.7l0.1,0
			c0.3-0.1,6.4-2.8,13.7-2.8c7.3,0,13.5,2.7,13.7,2.8l0.3,0.1c1.4,0.6,6.8,2.6,12.9,2.6c6.6,0,12.4-2.4,13.2-2.7l0.1,0
			c0.3-0.1,6.4-2.8,13.7-2.8c7.3,0,13.5,2.7,13.7,2.8c0.1,0,6.2,2.7,13.3,2.7c6.6,0,12.4-2.4,13.2-2.7l0.1,0
			c0.3-0.1,6.4-2.8,13.7-2.8c7.3,0,13.5,2.7,13.7,2.8l0.6,0.3c1.7,0.7,6.9,2.5,12.6,2.5c6.7,0,12.6-2.4,13.2-2.7l0.1,0
			c0.3-0.1,6.4-2.8,13.7-2.8c7.3,0,13.5,2.7,13.7,2.8c0.1,0,6.2,2.7,13.3,2.7c6.6,0,12.4-2.4,13.2-2.7l0.1,0
			c0.3-0.1,6.4-2.8,13.7-2.8c7.3,0,13.5,2.7,13.7,2.8l0.3,0.1c1.4,0.6,6.8,2.6,12.9,2.6c7.1,0,13.2-2.7,13.3-2.7
			c0.3-0.1,6.4-2.8,13.7-2.8c7.3,0,13.5,2.7,13.7,2.8c0.1,0,6.2,2.7,13.3,2.7c6.7,0,12.6-2.4,13.2-2.7l0.1,0
			c0.3-0.1,6.4-2.8,13.7-2.8c7.3,0,13.5,2.7,13.7,2.8l0.3,0.1c1.4,0.6,6.8,2.6,12.9,2.6c6.6,0,12.4-2.4,13.2-2.7l0.1,0
			c0.3-0.1,6.4-2.8,13.7-2.8c7.3,0,13.5,2.7,13.7,2.8c0.1,0,6.2,2.7,13.3,2.7c6.7,0,12.6-2.4,13.2-2.7l0.1,0
			c0.3-0.1,6.4-2.8,13.7-2.8c7.3,0,13.5,2.7,13.7,2.8l0.3,0.1c1.4,0.6,6.8,2.6,12.9,2.6c6.7,0,12.6-2.4,13.2-2.7l0.1,0
			c0.3-0.1,6.4-2.8,13.7-2.8c7.3,0,13.5,2.7,13.7,2.8c0.1,0,6.2,2.7,13.3,2.7c6.7,0,12.6-2.4,13.2-2.7l0.1,0
			c0.3-0.1,6.4-2.8,13.7-2.8c7.3,0,13.5,2.7,13.7,2.8l-0.5,1c-0.1,0-6.2-2.7-13.2-2.7c-6.7,0-12.6,2.4-13.2,2.7l-0.1,0
			C836.8,73.9,830.6,76.6,823.3,76.6z"/>
	</g>
	<g>
		<path class="st1" d="M823.3,83.2c-7.3,0-13.5-2.7-13.7-2.8c-0.1,0-6.2-2.7-13.3-2.7c-6.7,0-12.6,2.4-13.2,2.7l-0.1,0
			c-0.3,0.1-6.4,2.8-13.7,2.8c-7.3,0-13.5-2.7-13.7-2.8l-0.3-0.1c-1.4-0.6-6.8-2.6-12.9-2.6c-6.7,0-12.6,2.4-13.2,2.7l-0.1,0
			c-0.3,0.1-6.4,2.8-13.7,2.8c-7.3,0-13.5-2.7-13.7-2.8c-0.1,0-6.2-2.7-13.3-2.7c-6.6,0-12.4,2.4-13.2,2.7l-0.1,0
			c-0.3,0.1-6.4,2.8-13.7,2.8c-7.3,0-13.5-2.7-13.7-2.8l-0.3-0.1c-1.4-0.6-6.8-2.6-12.9-2.6c-6.7,0-12.6,2.4-13.2,2.7l-0.1,0
			c-0.3,0.1-6.4,2.8-13.7,2.8c-7.3,0-13.5-2.7-13.7-2.8c-0.1,0-6.2-2.7-13.3-2.7c-7.1,0-13.2,2.7-13.3,2.7
			c-0.3,0.1-6.4,2.8-13.7,2.8c-7.3,0-13.5-2.7-13.7-2.8l-0.3-0.1c-1.4-0.6-6.8-2.6-12.9-2.6c-6.6,0-12.4,2.4-13.2,2.7l-0.1,0
			c-0.3,0.1-6.4,2.8-13.7,2.8c-7.3,0-13.5-2.7-13.7-2.8c-0.1,0-6.2-2.7-13.3-2.7c-6.7,0-12.6,2.4-13.2,2.7l-0.1,0
			c-0.3,0.1-6.4,2.8-13.7,2.8c-7.3,0-13.5-2.7-13.7-2.8l-0.6-0.3c-1.7-0.7-6.9-2.5-12.6-2.5c-6.6,0-12.4,2.4-13.2,2.7l-0.1,0
			c-0.3,0.1-6.4,2.8-13.7,2.8c-7.3,0-13.5-2.7-13.7-2.8c-0.1,0-6.2-2.7-13.3-2.7c-6.6,0-12.4,2.4-13.2,2.7l-0.1,0
			c-0.3,0.1-6.4,2.8-13.7,2.8c-7.3,0-13.5-2.7-13.7-2.8l-0.3-0.1c-1.4-0.6-6.8-2.6-12.9-2.6c-6.7,0-12.6,2.4-13.2,2.7l-0.1,0
			c-0.3,0.1-6.4,2.8-13.7,2.8c-7.3,0-13.5-2.7-13.7-2.8c-0.1,0-6.2-2.7-13.3-2.7c-6.7,0-12.6,2.4-13.2,2.7l-0.1,0
			c-0.3,0.1-6.4,2.8-13.7,2.8c-7.3,0-13.5-2.7-13.7-2.8l-0.3-0.1c-1.4-0.6-6.8-2.6-12.9-2.6c-6.7,0-12.6,2.4-13.2,2.7l-0.1,0
			c-0.3,0.1-6.4,2.8-13.7,2.8c-7.3,0-13.5-2.7-13.7-2.8c-0.1,0-6.2-2.7-13.3-2.7c-6.6,0-12.4,2.4-13.2,2.7l-0.1,0
			c-0.3,0.1-6.4,2.8-13.7,2.8c-7.3,0-13.5-2.7-13.7-2.8l-0.3-0.1c-1.4-0.6-6.8-2.6-12.9-2.6c-6.6,0-12.4,2.4-13.2,2.7l-0.1,0
			c-0.3,0.1-6.4,2.8-13.7,2.8c-7.3,0-13.5-2.7-13.7-2.8c-0.1,0-6.2-2.7-13.3-2.7c-6.6,0-12.4,2.4-13.2,2.7l-0.1,0
			c-0.3,0.1-6.4,2.8-13.7,2.8c-7.3,0-13.5-2.7-13.7-2.8l0.5-1c0.1,0,6.2,2.7,13.2,2.7c6.6,0,12.4-2.4,13.2-2.7l0.1,0
			c0.3-0.1,6.4-2.8,13.7-2.8c7.3,0,13.5,2.7,13.7,2.8c0.1,0,6.2,2.7,13.3,2.7c6.6,0,12.4-2.4,13.2-2.7l0.1,0
			c0.3-0.1,6.4-2.8,13.7-2.8c7.3,0,13.5,2.7,13.7,2.8l0.3,0.1c1.4,0.6,6.8,2.6,12.9,2.6c6.6,0,12.4-2.4,13.2-2.7l0.1,0
			c0.3-0.1,6.4-2.8,13.7-2.8c7.3,0,13.5,2.7,13.7,2.8c0.1,0,6.2,2.7,13.3,2.7c6.7,0,12.6-2.4,13.2-2.7l0.1,0
			c0.3-0.1,6.4-2.8,13.7-2.8c7.3,0,13.5,2.7,13.7,2.8l0.3,0.1c1.4,0.6,6.8,2.6,12.9,2.6c6.7,0,12.6-2.4,13.2-2.7l0.1,0
			c0.3-0.1,6.4-2.8,13.7-2.8c7.3,0,13.5,2.7,13.7,2.8c0.1,0,6.2,2.7,13.3,2.7c6.7,0,12.6-2.4,13.2-2.7l0.1,0
			c0.3-0.1,6.4-2.8,13.7-2.8c7.3,0,13.5,2.7,13.7,2.8l0.3,0.1c1.4,0.6,6.8,2.6,12.9,2.6c6.6,0,12.4-2.4,13.2-2.7l0.1,0
			c0.3-0.1,6.4-2.8,13.7-2.8c7.3,0,13.5,2.7,13.7,2.8c0.1,0,6.2,2.7,13.3,2.7c6.6,0,12.4-2.4,13.2-2.7l0.1,0
			c0.3-0.1,6.4-2.8,13.7-2.8c7.3,0,13.5,2.7,13.7,2.8l0.6,0.3c1.7,0.7,6.9,2.5,12.6,2.5c6.7,0,12.6-2.4,13.2-2.7l0.1,0
			c0.3-0.1,6.4-2.8,13.7-2.8c7.3,0,13.5,2.7,13.7,2.8c0.1,0,6.2,2.7,13.3,2.7c6.6,0,12.4-2.4,13.2-2.7l0.1,0
			c0.3-0.1,6.4-2.8,13.7-2.8c7.3,0,13.5,2.7,13.7,2.8l0.3,0.1c1.4,0.6,6.8,2.6,12.9,2.6c7.1,0,13.2-2.7,13.3-2.7
			c0.3-0.1,6.4-2.8,13.7-2.8c7.3,0,13.5,2.7,13.7,2.8c0.1,0,6.2,2.7,13.3,2.7c6.7,0,12.6-2.4,13.2-2.7l0.1,0
			c0.3-0.1,6.4-2.8,13.7-2.8c7.3,0,13.5,2.7,13.7,2.8l0.3,0.1c1.4,0.6,6.8,2.6,12.9,2.6c6.6,0,12.4-2.4,13.2-2.7l0.1,0
			c0.3-0.1,6.4-2.8,13.7-2.8c7.3,0,13.5,2.7,13.7,2.8c0.1,0,6.2,2.7,13.3,2.7c6.7,0,12.6-2.4,13.2-2.7l0.1,0
			c0.3-0.1,6.4-2.8,13.7-2.8c7.3,0,13.5,2.7,13.7,2.8l0.3,0.1c1.4,0.6,6.8,2.6,12.9,2.6c6.7,0,12.6-2.4,13.2-2.7l0.1,0
			c0.3-0.1,6.4-2.8,13.7-2.8c7.3,0,13.5,2.7,13.7,2.8c0.1,0,6.2,2.7,13.3,2.7c6.7,0,12.6-2.4,13.2-2.7l0.1,0
			c0.3-0.1,6.4-2.8,13.7-2.8c7.3,0,13.5,2.7,13.7,2.8l-0.5,1c-0.1,0-6.2-2.7-13.2-2.7c-6.7,0-12.6,2.4-13.2,2.7l-0.1,0
			C836.8,80.5,830.6,83.2,823.3,83.2z"/>
	</g>
	<g>
		<path class="st1" d="M823.3,89.6c-7.3,0-13.5-2.7-13.7-2.8c-0.1,0-6.2-2.7-13.3-2.7c-6.7,0-12.6,2.4-13.2,2.7l-0.1,0
			c-0.3,0.1-6.4,2.8-13.7,2.8c-7.3,0-13.5-2.7-13.7-2.8l-0.3-0.1c-1.4-0.6-6.8-2.6-12.9-2.6c-6.7,0-12.6,2.4-13.2,2.7l-0.1,0
			c-0.3,0.1-6.4,2.8-13.7,2.8c-7.3,0-13.5-2.7-13.7-2.8c-0.1,0-6.2-2.7-13.3-2.7c-6.6,0-12.4,2.4-13.2,2.7l-0.1,0
			c-0.3,0.1-6.4,2.8-13.7,2.8c-7.3,0-13.5-2.7-13.7-2.8l-0.3-0.1C646,86,640.5,84,634.4,84c-6.7,0-12.6,2.4-13.2,2.7l-0.1,0
			c-0.3,0.1-6.4,2.8-13.7,2.8c-7.3,0-13.5-2.7-13.7-2.8c-0.1,0-6.2-2.7-13.3-2.7c-7.1,0-13.2,2.7-13.3,2.7
			c-0.3,0.1-6.4,2.8-13.7,2.8c-7.3,0-13.5-2.7-13.7-2.8l-0.3-0.1C538,86,532.6,84,526.5,84c-6.6,0-12.4,2.4-13.2,2.7l-0.1,0
			c-0.3,0.1-6.4,2.8-13.7,2.8c-7.3,0-13.5-2.7-13.7-2.8c-0.1,0-6.2-2.7-13.3-2.7c-6.7,0-12.6,2.4-13.2,2.7l-0.1,0
			c-0.3,0.1-6.4,2.8-13.7,2.8c-7.3,0-13.5-2.7-13.7-2.8l-0.6-0.3c-1.7-0.7-6.9-2.5-12.6-2.5c-6.6,0-12.4,2.4-13.2,2.7l-0.1,0
			c-0.3,0.1-6.4,2.8-13.7,2.8c-7.3,0-13.5-2.7-13.7-2.8c-0.1,0-6.2-2.7-13.3-2.7c-6.6,0-12.4,2.4-13.2,2.7l-0.1,0
			c-0.3,0.1-6.4,2.8-13.7,2.8c-7.3,0-13.5-2.7-13.7-2.8l-0.3-0.1c-1.4-0.6-6.8-2.6-12.9-2.6c-6.7,0-12.6,2.4-13.2,2.7l-0.1,0
			c-0.3,0.1-6.4,2.8-13.7,2.8c-7.3,0-13.5-2.7-13.7-2.8c-0.1,0-6.2-2.7-13.3-2.7c-6.7,0-12.6,2.4-13.2,2.7l-0.1,0
			c-0.3,0.1-6.4,2.8-13.7,2.8c-7.3,0-13.5-2.7-13.7-2.8l-0.3-0.1c-1.4-0.6-6.8-2.6-12.9-2.6c-6.7,0-12.6,2.4-13.2,2.7l-0.1,0
			c-0.3,0.1-6.4,2.8-13.7,2.8c-7.3,0-13.5-2.7-13.7-2.8c-0.1,0-6.2-2.7-13.3-2.7c-6.6,0-12.4,2.4-13.2,2.7l-0.1,0
			c-0.3,0.1-6.4,2.8-13.7,2.8c-7.3,0-13.5-2.7-13.7-2.8l-0.3-0.1c-1.4-0.6-6.8-2.6-12.9-2.6c-6.6,0-12.4,2.4-13.2,2.7l-0.1,0
			c-0.3,0.1-6.4,2.8-13.7,2.8c-7.3,0-13.5-2.7-13.7-2.8c-0.1,0-6.2-2.7-13.3-2.7c-6.6,0-12.4,2.4-13.2,2.7l-0.1,0
			c-0.3,0.1-6.4,2.8-13.7,2.8c-7.3,0-13.5-2.7-13.7-2.8l0.5-1c0.1,0,6.2,2.7,13.2,2.7c6.6,0,12.4-2.4,13.2-2.7l0.1,0
			c0.3-0.1,6.4-2.8,13.7-2.8c7.3,0,13.5,2.7,13.7,2.8c0.1,0,6.2,2.7,13.3,2.7c6.6,0,12.4-2.4,13.2-2.7l0.1,0
			c0.3-0.1,6.4-2.8,13.7-2.8c7.3,0,13.5,2.7,13.7,2.8l0.3,0.1c1.4,0.6,6.8,2.6,12.9,2.6c6.6,0,12.4-2.4,13.2-2.7l0.1,0
			c0.3-0.1,6.4-2.8,13.7-2.8c7.3,0,13.5,2.7,13.7,2.8c0.1,0,6.2,2.7,13.3,2.7c6.7,0,12.6-2.4,13.2-2.7l0.1,0
			c0.3-0.1,6.4-2.8,13.7-2.8c7.3,0,13.5,2.7,13.7,2.8l0.3,0.1c1.4,0.6,6.8,2.6,12.9,2.6c6.7,0,12.6-2.4,13.2-2.7l0.1,0
			c0.3-0.1,6.4-2.8,13.7-2.8c7.3,0,13.5,2.7,13.7,2.8c0.1,0,6.2,2.7,13.3,2.7c6.7,0,12.6-2.4,13.2-2.7l0.1,0
			c0.3-0.1,6.4-2.8,13.7-2.8c7.3,0,13.5,2.7,13.7,2.8l0.3,0.1c1.4,0.6,6.8,2.6,12.9,2.6c6.6,0,12.4-2.4,13.2-2.7l0.1,0
			c0.3-0.1,6.4-2.8,13.7-2.8c7.3,0,13.5,2.7,13.7,2.8c0.1,0,6.2,2.7,13.3,2.7c6.6,0,12.4-2.4,13.2-2.7l0.1,0
			c0.3-0.1,6.4-2.8,13.7-2.8c7.3,0,13.5,2.7,13.7,2.8l0.6,0.3c1.7,0.7,6.9,2.5,12.6,2.5c6.7,0,12.6-2.4,13.2-2.7l0.1,0
			c0.3-0.1,6.4-2.8,13.7-2.8c7.3,0,13.5,2.7,13.7,2.8c0.1,0,6.2,2.7,13.3,2.7c6.6,0,12.4-2.4,13.2-2.7l0.1,0
			c0.3-0.1,6.4-2.8,13.7-2.8c7.3,0,13.5,2.7,13.7,2.8l0.3,0.1c1.4,0.6,6.8,2.6,12.9,2.6c7.1,0,13.2-2.7,13.3-2.7
			c0.3-0.1,6.4-2.8,13.7-2.8c7.3,0,13.5,2.7,13.7,2.8c0.1,0,6.2,2.7,13.3,2.7c6.7,0,12.6-2.4,13.2-2.7l0.1,0
			c0.3-0.1,6.4-2.8,13.7-2.8c7.3,0,13.5,2.7,13.7,2.8l0.3,0.1c1.4,0.6,6.8,2.6,12.9,2.6c6.6,0,12.4-2.4,13.2-2.7l0.1,0
			c0.3-0.1,6.4-2.8,13.7-2.8c7.3,0,13.5,2.7,13.7,2.8c0.1,0,6.2,2.7,13.3,2.7c6.7,0,12.6-2.4,13.2-2.7l0.1,0
			c0.3-0.1,6.4-2.8,13.7-2.8c7.3,0,13.5,2.7,13.7,2.8l0.3,0.1c1.4,0.6,6.8,2.6,12.9,2.6c6.7,0,12.6-2.4,13.2-2.7l0.1,0
			c0.3-0.1,6.4-2.8,13.7-2.8c7.3,0,13.5,2.7,13.7,2.8c0.1,0,6.2,2.7,13.3,2.7c6.7,0,12.6-2.4,13.2-2.7l0.1,0
			c0.3-0.1,6.4-2.8,13.7-2.8c7.3,0,13.5,2.7,13.7,2.8l-0.5,1c-0.1,0-6.2-2.7-13.2-2.7c-6.7,0-12.6,2.4-13.2,2.7l-0.1,0
			C836.8,86.8,830.6,89.6,823.3,89.6z"/>
	</g>
	<g>
		<path class="st1" d="M823.3,96c-7,0-12.9-2.5-13.7-2.8l-0.1,0c-0.1,0-6.2-2.7-13.2-2.7c-7.1,0-13.2,2.7-13.3,2.7
			c-0.3,0.1-6.4,2.8-13.7,2.8c-7.3,0-13.5-2.7-13.7-2.8l-0.3-0.1c-1.3-0.5-6.8-2.6-12.9-2.6c-7.1,0-13.2,2.7-13.3,2.7
			c-0.3,0.1-6.4,2.8-13.7,2.8c-7,0-12.9-2.5-13.7-2.8l-0.1,0c-0.1,0-6.2-2.7-13.2-2.7c-6.7,0-12.6,2.4-13.2,2.7l-0.1,0
			c-0.3,0.1-6.4,2.8-13.7,2.8c-7.3,0-13.5-2.7-13.7-2.8l-0.3-0.1c-1.3-0.5-6.8-2.6-13-2.6c-7.1,0-13.2,2.7-13.3,2.7
			c-0.3,0.1-6.4,2.8-13.7,2.8c-7,0-12.9-2.5-13.7-2.8l-0.1,0c-0.1,0-6.2-2.7-13.2-2.7c-7.1,0-13.2,2.7-13.3,2.7
			c-0.3,0.1-6.4,2.8-13.7,2.8c-7.3,0-13.5-2.7-13.7-2.8l-0.3-0.1c-1.3-0.5-6.8-2.6-13-2.6c-6.7,0-12.6,2.4-13.2,2.7l-0.1,0
			c-0.3,0.1-6.4,2.8-13.7,2.8c-7,0-12.9-2.5-13.7-2.8l-0.1,0c-0.1,0-6.2-2.7-13.2-2.7c-7.1,0-13.2,2.7-13.3,2.7
			c-0.3,0.1-6.4,2.8-13.7,2.8c-7.3,0-13.5-2.7-13.7-2.8l0,0c-0.5-0.2-6.5-2.7-13.2-2.7c-6.7,0-12.6,2.4-13.2,2.7l-0.1,0
			c-0.3,0.1-6.4,2.8-13.7,2.8c-7,0-12.9-2.5-13.7-2.8l-0.1,0c-0.1,0-6.2-2.7-13.2-2.7c-6.7,0-12.6,2.4-13.2,2.7l-0.1,0
			c-0.3,0.1-6.4,2.8-13.7,2.8c-7.3,0-13.5-2.7-13.7-2.8l-0.3-0.1c-1.3-0.5-6.8-2.6-13-2.6c-7.1,0-13.2,2.7-13.3,2.7
			c-0.3,0.1-6.4,2.8-13.7,2.8c-7,0-12.9-2.5-13.7-2.8l-0.1,0c-0.1,0-6.2-2.7-13.2-2.7c-7.1,0-13.2,2.7-13.3,2.7
			c-0.3,0.1-6.4,2.8-13.7,2.8c-7.3,0-13.5-2.7-13.7-2.8l-0.3-0.1c-1.3-0.5-6.8-2.6-12.9-2.6c-7.1,0-13.2,2.7-13.3,2.7
			c-0.3,0.1-6.4,2.8-13.7,2.8c-7,0-12.9-2.5-13.7-2.8l-0.1,0c-0.1,0-6.2-2.7-13.2-2.7c-6.7,0-12.6,2.4-13.2,2.7l-0.1,0
			c-0.3,0.1-6.4,2.8-13.7,2.8c-7.3,0-13.5-2.7-13.7-2.8l-0.3-0.1c-1.3-0.5-6.8-2.6-13-2.6c-6.7,0-12.6,2.4-13.2,2.7l-0.1,0
			C81.2,93.3,75,96,67.7,96c-7,0-12.9-2.5-13.7-2.8l-0.1,0c-0.1,0-6.2-2.7-13.2-2.7c-6.7,0-12.6,2.4-13.2,2.7l-0.1,0
			C27.2,93.3,21,96,13.7,96C6.4,96,0.3,93.3,0,93.2l0.5-1c0.1,0,6.2,2.7,13.2,2.7c6.7,0,12.6-2.4,13.2-2.7l0.1,0
			c0.3-0.1,6.4-2.8,13.7-2.8c7,0,12.9,2.5,13.7,2.8l0.1,0c0.1,0,6.2,2.7,13.2,2.7c6.7,0,12.6-2.4,13.2-2.7l0.1,0
			c0.3-0.1,6.4-2.8,13.7-2.8c7.3,0,13.5,2.7,13.7,2.8l0.3,0.1c1.3,0.5,6.8,2.6,13,2.6c6.7,0,12.6-2.4,13.2-2.7l0.1,0
			c0.3-0.1,6.4-2.8,13.7-2.8c7,0,12.9,2.5,13.7,2.8l0.1,0c0.1,0,6.2,2.7,13.2,2.7c7.1,0,13.2-2.7,13.3-2.7c0.3-0.1,6.4-2.8,13.7-2.8
			c7.3,0,13.5,2.7,13.7,2.8l0.3,0.1c1.3,0.5,6.8,2.6,12.9,2.6c7.1,0,13.2-2.7,13.3-2.7c0.3-0.1,6.4-2.8,13.7-2.8
			c7,0,12.9,2.5,13.7,2.8l0.1,0c0.1,0,6.2,2.7,13.2,2.7c7.1,0,13.2-2.7,13.3-2.7c0.3-0.1,6.4-2.8,13.7-2.8c7.3,0,13.5,2.7,13.7,2.8
			l0.3,0.1c1.3,0.5,6.8,2.6,13,2.6c6.7,0,12.6-2.4,13.2-2.7l0.1,0c0.3-0.1,6.4-2.8,13.7-2.8c7,0,12.9,2.5,13.7,2.8l0.1,0
			c0.1,0,6.2,2.7,13.2,2.7c6.7,0,12.6-2.4,13.2-2.7l0.1,0c0.3-0.1,6.4-2.8,13.7-2.8c7.3,0,13.5,2.7,13.7,2.8l0,0
			c0.5,0.2,6.5,2.7,13.2,2.7c7.1,0,13.2-2.7,13.3-2.7c0.3-0.1,6.4-2.8,13.7-2.8c7,0,12.9,2.5,13.7,2.8l0.1,0c0.1,0,6.2,2.7,13.2,2.7
			c6.7,0,12.6-2.4,13.2-2.7l0.1,0c0.3-0.1,6.4-2.8,13.7-2.8c7.3,0,13.5,2.7,13.7,2.8l0.3,0.1c1.3,0.5,6.8,2.6,13,2.6
			c7.1,0,13.2-2.7,13.3-2.7c0.3-0.1,6.4-2.8,13.7-2.8c7,0,12.9,2.5,13.7,2.8l0.1,0c0.1,0,6.2,2.7,13.2,2.7c7.1,0,13.2-2.7,13.3-2.7
			c0.3-0.1,6.4-2.8,13.7-2.8c7.3,0,13.5,2.7,13.7,2.8l0.3,0.1c1.3,0.5,6.8,2.6,13,2.6c6.7,0,12.6-2.4,13.2-2.7l0.1,0
			c0.3-0.1,6.4-2.8,13.7-2.8c7,0,12.9,2.5,13.7,2.8l0.1,0c0.1,0,6.2,2.7,13.2,2.7c7.1,0,13.2-2.7,13.3-2.7c0.3-0.1,6.4-2.8,13.7-2.8
			c7.3,0,13.5,2.7,13.7,2.8l0.3,0.1c1.3,0.5,6.8,2.6,12.9,2.6c7.1,0,13.2-2.7,13.3-2.7c0.3-0.1,6.4-2.8,13.7-2.8
			c7,0,12.9,2.5,13.7,2.8l0.1,0c0.1,0,6.2,2.7,13.2,2.7c7.1,0,13.2-2.7,13.3-2.7c0.3-0.1,6.4-2.8,13.7-2.8c7.3,0,13.5,2.7,13.7,2.8
			l-0.5,1c-0.1,0-6.2-2.7-13.2-2.7c-7.1,0-13.2,2.7-13.3,2.7C836.8,93.3,830.6,96,823.3,96z"/>
	</g>
	<g>
		<path class="st1" d="M823.3,102.3c-7,0-12.9-2.5-13.7-2.8l-0.1,0c-0.1,0-6.2-2.7-13.2-2.7c-7.1,0-13.2,2.7-13.3,2.7
			c-0.3,0.1-6.4,2.8-13.7,2.8c-7.3,0-13.5-2.7-13.7-2.8l-0.3-0.1c-1.3-0.5-6.8-2.6-12.9-2.6c-7.1,0-13.2,2.7-13.3,2.7
			c-0.3,0.1-6.4,2.8-13.7,2.8c-7,0-12.9-2.5-13.7-2.8l-0.1,0c-0.1,0-6.2-2.7-13.2-2.7c-6.7,0-12.6,2.4-13.2,2.7l-0.1,0
			c-0.3,0.1-6.4,2.8-13.7,2.8c-7.3,0-13.5-2.7-13.7-2.8l-0.3-0.1c-1.3-0.5-6.8-2.6-13-2.6c-7.1,0-13.2,2.7-13.3,2.7
			c-0.3,0.1-6.4,2.8-13.7,2.8c-7,0-12.9-2.5-13.7-2.8l-0.1,0c-0.1,0-6.2-2.7-13.2-2.7c-7.1,0-13.2,2.7-13.3,2.7
			c-0.3,0.1-6.4,2.8-13.7,2.8c-7.3,0-13.5-2.7-13.7-2.8l-0.3-0.1c-1.3-0.5-6.8-2.6-13-2.6c-6.7,0-12.6,2.4-13.2,2.7l-0.1,0
			c-0.3,0.1-6.4,2.8-13.7,2.8c-7,0-12.9-2.5-13.7-2.8l-0.1,0c-0.1,0-6.2-2.7-13.2-2.7c-7.1,0-13.2,2.7-13.3,2.7
			c-0.3,0.1-6.4,2.8-13.7,2.8c-7.3,0-13.5-2.7-13.7-2.8l0,0c-0.5-0.2-6.5-2.7-13.2-2.7c-6.7,0-12.6,2.4-13.2,2.7l-0.1,0
			c-0.3,0.1-6.4,2.8-13.7,2.8c-7,0-12.9-2.5-13.7-2.8l-0.1,0c-0.1,0-6.2-2.7-13.2-2.7c-6.7,0-12.6,2.4-13.2,2.7l-0.1,0
			c-0.3,0.1-6.4,2.8-13.7,2.8c-7.3,0-13.5-2.7-13.7-2.8l-0.3-0.1c-1.3-0.5-6.8-2.6-13-2.6c-7.1,0-13.2,2.7-13.3,2.7
			c-0.3,0.1-6.4,2.8-13.7,2.8c-7,0-12.9-2.5-13.7-2.8l-0.1,0c-0.1,0-6.2-2.7-13.2-2.7c-7.1,0-13.2,2.7-13.3,2.7
			c-0.3,0.1-6.4,2.8-13.7,2.8c-7.3,0-13.5-2.7-13.7-2.8l-0.3-0.1c-1.3-0.5-6.8-2.6-12.9-2.6c-7.1,0-13.2,2.7-13.3,2.7
			c-0.3,0.1-6.4,2.8-13.7,2.8c-7,0-12.9-2.5-13.7-2.8l-0.1,0c-0.1,0-6.2-2.7-13.2-2.7c-6.7,0-12.6,2.4-13.2,2.7l-0.1,0
			c-0.3,0.1-6.4,2.8-13.7,2.8c-7.3,0-13.5-2.7-13.7-2.8l-0.3-0.1c-1.3-0.5-6.8-2.6-13-2.6c-6.7,0-12.6,2.4-13.2,2.7l-0.1,0
			c-0.3,0.1-6.4,2.8-13.7,2.8c-7,0-12.9-2.5-13.7-2.8l-0.1,0c-0.1,0-6.2-2.7-13.2-2.7c-6.7,0-12.6,2.4-13.2,2.7l-0.1,0
			c-0.3,0.1-6.4,2.8-13.7,2.8c-7.3,0-13.5-2.7-13.7-2.8l0.5-1c0.1,0,6.2,2.7,13.2,2.7c6.7,0,12.6-2.4,13.2-2.7l0.1,0
			c0.3-0.1,6.4-2.8,13.7-2.8c7,0,12.9,2.5,13.7,2.8l0.1,0c0.1,0,6.2,2.7,13.2,2.7c6.7,0,12.6-2.4,13.2-2.7l0.1,0
			c0.3-0.1,6.4-2.8,13.7-2.8c7.3,0,13.5,2.7,13.7,2.8l0.3,0.1c1.3,0.5,6.8,2.6,13,2.6c6.7,0,12.6-2.4,13.2-2.7l0.1,0
			c0.3-0.1,6.4-2.8,13.7-2.8c7,0,12.9,2.5,13.7,2.8l0.1,0c0.1,0,6.2,2.7,13.2,2.7c7.1,0,13.2-2.7,13.3-2.7c0.3-0.1,6.4-2.8,13.7-2.8
			c7.3,0,13.5,2.7,13.7,2.8l0.3,0.1c1.3,0.5,6.8,2.6,12.9,2.6c7.1,0,13.2-2.7,13.3-2.7c0.3-0.1,6.4-2.8,13.7-2.8
			c7,0,12.9,2.5,13.7,2.8l0.1,0c0.1,0,6.2,2.7,13.2,2.7c7.1,0,13.2-2.7,13.3-2.7c0.3-0.1,6.4-2.8,13.7-2.8c7.3,0,13.5,2.7,13.7,2.8
			l0.3,0.1c1.3,0.5,6.8,2.6,13,2.6c6.7,0,12.6-2.4,13.2-2.7l0.1,0c0.3-0.1,6.4-2.8,13.7-2.8c7,0,12.9,2.5,13.7,2.8l0.1,0
			c0.1,0,6.2,2.7,13.2,2.7c6.7,0,12.6-2.4,13.2-2.7l0.1,0c0.3-0.1,6.4-2.8,13.7-2.8c7.3,0,13.5,2.7,13.7,2.8l0,0
			c0.5,0.2,6.5,2.7,13.2,2.7c7.1,0,13.2-2.7,13.3-2.7c0.3-0.1,6.4-2.8,13.7-2.8c7,0,12.9,2.5,13.7,2.8l0.1,0c0.1,0,6.2,2.7,13.2,2.7
			c6.7,0,12.6-2.4,13.2-2.7l0.1,0c0.3-0.1,6.4-2.8,13.7-2.8c7.3,0,13.5,2.7,13.7,2.8l0.3,0.1c1.3,0.5,6.8,2.6,13,2.6
			c7.1,0,13.2-2.7,13.3-2.7c0.3-0.1,6.4-2.8,13.7-2.8c7,0,12.9,2.5,13.7,2.8l0.1,0c0.1,0,6.2,2.7,13.2,2.7c7.1,0,13.2-2.7,13.3-2.7
			c0.3-0.1,6.4-2.8,13.7-2.8c7.3,0,13.5,2.7,13.7,2.8l0.3,0.1c1.3,0.5,6.8,2.6,13,2.6c6.7,0,12.6-2.4,13.2-2.7l0.1,0
			c0.3-0.1,6.4-2.8,13.7-2.8c7,0,12.9,2.5,13.7,2.8l0.1,0c0.1,0,6.2,2.7,13.2,2.7c7.1,0,13.2-2.7,13.3-2.7c0.3-0.1,6.4-2.8,13.7-2.8
			c7.3,0,13.5,2.7,13.7,2.8l0.3,0.1c1.3,0.5,6.8,2.6,12.9,2.6c7.1,0,13.2-2.7,13.3-2.7c0.3-0.1,6.4-2.8,13.7-2.8
			c7,0,12.9,2.5,13.7,2.8l0.1,0c0.1,0,6.2,2.7,13.2,2.7c7.1,0,13.2-2.7,13.3-2.7c0.3-0.1,6.4-2.8,13.7-2.8c7.3,0,13.5,2.7,13.7,2.8
			l-0.5,1c-0.1,0-6.2-2.7-13.2-2.7c-7.1,0-13.2,2.7-13.3,2.7C836.8,99.6,830.6,102.3,823.3,102.3z"/>
	</g>
	<g>
		<path class="st1" d="M823.3,108.7c-7,0-12.9-2.5-13.7-2.8l-0.1,0c-0.1,0-6.2-2.7-13.2-2.7c-7.1,0-13.2,2.7-13.3,2.7
			c-0.3,0.1-6.4,2.8-13.7,2.8c-7.3,0-13.5-2.7-13.7-2.8l-0.3-0.1c-1.3-0.5-6.8-2.6-12.9-2.6c-7.1,0-13.2,2.7-13.3,2.7
			c-0.3,0.1-6.4,2.8-13.7,2.8c-7,0-12.9-2.5-13.7-2.8l-0.1,0c-0.1,0-6.2-2.7-13.2-2.7c-6.7,0-12.6,2.4-13.2,2.7l-0.1,0
			c-0.3,0.1-6.4,2.8-13.7,2.8c-7.3,0-13.5-2.7-13.7-2.8l-0.3-0.1c-1.3-0.5-6.8-2.6-13-2.6c-7.1,0-13.2,2.7-13.3,2.7
			c-0.3,0.1-6.4,2.8-13.7,2.8c-7,0-12.9-2.5-13.7-2.8l-0.1,0c-0.1,0-6.2-2.7-13.2-2.7c-7.1,0-13.2,2.7-13.3,2.7
			c-0.3,0.1-6.4,2.8-13.7,2.8c-7.3,0-13.5-2.7-13.7-2.8l-0.3-0.1c-1.3-0.5-6.8-2.6-13-2.6c-6.7,0-12.6,2.4-13.2,2.7l-0.1,0
			c-0.3,0.1-6.4,2.8-13.7,2.8c-7,0-12.9-2.5-13.7-2.8l-0.1,0c-0.1,0-6.2-2.7-13.2-2.7c-7.1,0-13.2,2.7-13.3,2.7
			c-0.3,0.1-6.4,2.8-13.7,2.8c-7.3,0-13.5-2.7-13.7-2.8l0,0c-0.5-0.2-6.5-2.7-13.2-2.7c-6.7,0-12.6,2.4-13.2,2.7l-0.1,0
			c-0.3,0.1-6.4,2.8-13.7,2.8c-7,0-12.9-2.5-13.7-2.8l-0.1,0c-0.1,0-6.2-2.7-13.2-2.7c-6.7,0-12.6,2.4-13.2,2.7l-0.1,0
			c-0.3,0.1-6.4,2.8-13.7,2.8c-7.3,0-13.5-2.7-13.7-2.8l-0.3-0.1c-1.3-0.5-6.8-2.6-13-2.6c-7.1,0-13.2,2.7-13.3,2.7
			c-0.3,0.1-6.4,2.8-13.7,2.8c-7,0-12.9-2.5-13.7-2.8l-0.1,0c-0.1,0-6.2-2.7-13.2-2.7c-7.1,0-13.2,2.7-13.3,2.7
			c-0.3,0.1-6.4,2.8-13.7,2.8c-7.3,0-13.5-2.7-13.7-2.8l-0.3-0.1c-1.3-0.5-6.8-2.6-12.9-2.6c-7.1,0-13.2,2.7-13.3,2.7
			c-0.3,0.1-6.4,2.8-13.7,2.8c-7,0-12.9-2.5-13.7-2.8l-0.1,0c-0.1,0-6.2-2.7-13.2-2.7c-6.7,0-12.6,2.4-13.2,2.7l-0.1,0
			c-0.3,0.1-6.4,2.8-13.7,2.8c-7.3,0-13.5-2.7-13.7-2.8l-0.3-0.1c-1.3-0.5-6.8-2.6-13-2.6c-6.7,0-12.6,2.4-13.2,2.7l-0.1,0
			c-0.3,0.1-6.4,2.8-13.7,2.8c-7,0-12.9-2.5-13.7-2.8l-0.1,0c-0.1,0-6.2-2.7-13.2-2.7c-6.7,0-12.6,2.4-13.2,2.7l-0.1,0
			c-0.3,0.1-6.4,2.8-13.7,2.8c-7.3,0-13.5-2.7-13.7-2.8l0.5-1c0.1,0,6.2,2.7,13.2,2.7c6.7,0,12.6-2.4,13.2-2.7l0.1,0
			c0.3-0.1,6.4-2.8,13.7-2.8c7,0,12.9,2.5,13.7,2.8l0.1,0c0.1,0,6.2,2.7,13.2,2.7c6.7,0,12.6-2.4,13.2-2.7l0.1,0
			c0.3-0.1,6.4-2.8,13.7-2.8c7.3,0,13.5,2.7,13.7,2.8l0.3,0.1c1.3,0.5,6.8,2.6,13,2.6c6.7,0,12.6-2.4,13.2-2.7l0.1,0
			c0.3-0.1,6.4-2.8,13.7-2.8c7,0,12.9,2.5,13.7,2.8l0.1,0c0.1,0,6.2,2.7,13.2,2.7c7.1,0,13.2-2.7,13.3-2.7c0.3-0.1,6.4-2.8,13.7-2.8
			c7.3,0,13.5,2.7,13.7,2.8l0.3,0.1c1.3,0.5,6.8,2.6,12.9,2.6c7.1,0,13.2-2.7,13.3-2.7c0.3-0.1,6.4-2.8,13.7-2.8
			c7,0,12.9,2.5,13.7,2.8l0.1,0c0.1,0,6.2,2.7,13.2,2.7c7.1,0,13.2-2.7,13.3-2.7c0.3-0.1,6.4-2.8,13.7-2.8c7.3,0,13.5,2.7,13.7,2.8
			l0.3,0.1c1.3,0.5,6.8,2.6,13,2.6c6.7,0,12.6-2.4,13.2-2.7l0.1,0c0.3-0.1,6.4-2.8,13.7-2.8c7,0,12.9,2.5,13.7,2.8l0.1,0
			c0.1,0,6.2,2.7,13.2,2.7c6.7,0,12.6-2.4,13.2-2.7l0.1,0c0.3-0.1,6.4-2.8,13.7-2.8c7.3,0,13.5,2.7,13.7,2.8l0,0
			c0.5,0.2,6.5,2.7,13.2,2.7c7.1,0,13.2-2.7,13.3-2.7c0.3-0.1,6.4-2.8,13.7-2.8c7,0,12.9,2.5,13.7,2.8l0.1,0c0.1,0,6.2,2.7,13.2,2.7
			c6.7,0,12.6-2.4,13.2-2.7l0.1,0c0.3-0.1,6.4-2.8,13.7-2.8c7.3,0,13.5,2.7,13.7,2.8l0.3,0.1c1.3,0.5,6.8,2.6,13,2.6
			c7.1,0,13.2-2.7,13.3-2.7c0.3-0.1,6.4-2.8,13.7-2.8c7,0,12.9,2.5,13.7,2.8l0.1,0c0.1,0,6.2,2.7,13.2,2.7c7.1,0,13.2-2.7,13.3-2.7
			c0.3-0.1,6.4-2.8,13.7-2.8c7.3,0,13.5,2.7,13.7,2.8l0.3,0.1c1.3,0.5,6.8,2.6,13,2.6c6.7,0,12.6-2.4,13.2-2.7l0.1,0
			c0.3-0.1,6.4-2.8,13.7-2.8c7,0,12.9,2.5,13.7,2.8l0.1,0c0.1,0,6.2,2.7,13.2,2.7c7.1,0,13.2-2.7,13.3-2.7c0.3-0.1,6.4-2.8,13.7-2.8
			c7.3,0,13.5,2.7,13.7,2.8l0.3,0.1c1.3,0.5,6.8,2.6,12.9,2.6c7.1,0,13.2-2.7,13.3-2.7c0.3-0.1,6.4-2.8,13.7-2.8
			c7,0,12.9,2.5,13.7,2.8l0.1,0c0.1,0,6.2,2.7,13.2,2.7c7.1,0,13.2-2.7,13.3-2.7c0.3-0.1,6.4-2.8,13.7-2.8c7.3,0,13.5,2.7,13.7,2.8
			l-0.5,1c-0.1,0-6.2-2.7-13.2-2.7c-7.1,0-13.2,2.7-13.3,2.7C836.8,106,830.6,108.7,823.3,108.7z"/>
	</g>
	<g>
		<path class="st1" d="M823.3,115c-7,0-12.9-2.5-13.7-2.8l-0.1,0c-0.1,0-6.2-2.7-13.2-2.7c-7.1,0-13.2,2.7-13.3,2.7
			c-0.3,0.1-6.4,2.8-13.7,2.8c-7.3,0-13.5-2.7-13.7-2.8l-0.3-0.1c-1.3-0.5-6.8-2.6-12.9-2.6c-7.1,0-13.2,2.7-13.3,2.7
			c-0.3,0.1-6.4,2.8-13.7,2.8c-7,0-12.9-2.5-13.7-2.8l-0.1,0c-0.1,0-6.2-2.7-13.2-2.7c-6.7,0-12.6,2.4-13.2,2.7l-0.1,0
			c-0.3,0.1-6.4,2.8-13.7,2.8c-7.3,0-13.5-2.7-13.7-2.8l-0.3-0.1c-1.3-0.5-6.8-2.6-13-2.6c-7.1,0-13.2,2.7-13.3,2.7
			c-0.3,0.1-6.4,2.8-13.7,2.8c-7,0-12.9-2.5-13.7-2.8l-0.1,0c-0.1,0-6.2-2.7-13.2-2.7c-7.1,0-13.2,2.7-13.3,2.7
			c-0.3,0.1-6.4,2.8-13.7,2.8c-7.3,0-13.5-2.7-13.7-2.8l-0.3-0.1c-1.3-0.5-6.8-2.6-13-2.6c-6.7,0-12.6,2.4-13.2,2.7l-0.1,0
			c-0.3,0.1-6.4,2.8-13.7,2.8c-7,0-12.9-2.5-13.7-2.8l-0.1,0c-0.1,0-6.2-2.7-13.2-2.7c-7.1,0-13.2,2.7-13.3,2.7
			c-0.3,0.1-6.4,2.8-13.7,2.8c-7.3,0-13.5-2.7-13.7-2.8l0,0c-0.5-0.2-6.5-2.7-13.2-2.7c-6.7,0-12.6,2.4-13.2,2.7l-0.1,0
			c-0.3,0.1-6.4,2.8-13.7,2.8c-7,0-12.9-2.5-13.7-2.8l-0.1,0c-0.1,0-6.2-2.7-13.2-2.7c-6.7,0-12.6,2.4-13.2,2.7l-0.1,0
			c-0.3,0.1-6.4,2.8-13.7,2.8c-7.3,0-13.5-2.7-13.7-2.8l-0.3-0.1c-1.3-0.5-6.8-2.6-13-2.6c-7.1,0-13.2,2.7-13.3,2.7
			c-0.3,0.1-6.4,2.8-13.7,2.8c-7,0-12.9-2.5-13.7-2.8l-0.1,0c-0.1,0-6.2-2.7-13.2-2.7c-7.1,0-13.2,2.7-13.3,2.7
			c-0.3,0.1-6.4,2.8-13.7,2.8c-7.3,0-13.5-2.7-13.7-2.8l-0.3-0.1c-1.3-0.5-6.8-2.6-12.9-2.6c-7.1,0-13.2,2.7-13.3,2.7
			c-0.3,0.1-6.4,2.8-13.7,2.8c-7,0-12.9-2.5-13.7-2.8l-0.1,0c-0.1,0-6.2-2.7-13.2-2.7c-6.7,0-12.6,2.4-13.2,2.7l-0.1,0
			c-0.3,0.1-6.4,2.8-13.7,2.8c-7.3,0-13.5-2.7-13.7-2.8l-0.3-0.1c-1.3-0.5-6.8-2.6-13-2.6c-6.7,0-12.6,2.4-13.2,2.7l-0.1,0
			c-0.3,0.1-6.4,2.8-13.7,2.8c-7,0-12.9-2.5-13.7-2.8l-0.1,0c-0.1,0-6.2-2.7-13.2-2.7c-6.7,0-12.6,2.4-13.2,2.7l-0.1,0
			c-0.3,0.1-6.4,2.8-13.7,2.8c-7.3,0-13.5-2.7-13.7-2.8l0.5-1c0.1,0,6.2,2.7,13.2,2.7c6.7,0,12.6-2.4,13.2-2.7l0.1,0
			c0.3-0.1,6.4-2.8,13.7-2.8c7,0,12.9,2.5,13.7,2.8l0.1,0c0.1,0,6.2,2.7,13.2,2.7c6.7,0,12.6-2.4,13.2-2.7l0.1,0
			c0.3-0.1,6.4-2.8,13.7-2.8c7.3,0,13.5,2.7,13.7,2.8l0.3,0.1c1.3,0.5,6.8,2.6,13,2.6c6.7,0,12.6-2.4,13.2-2.7l0.1,0
			c0.3-0.1,6.4-2.8,13.7-2.8c7,0,12.9,2.5,13.7,2.8l0.1,0c0.1,0,6.2,2.7,13.2,2.7c7.1,0,13.2-2.7,13.3-2.7c0.3-0.1,6.4-2.8,13.7-2.8
			c7.3,0,13.5,2.7,13.7,2.8l0.3,0.1c1.3,0.5,6.8,2.6,12.9,2.6c7.1,0,13.2-2.7,13.3-2.7c0.3-0.1,6.4-2.8,13.7-2.8
			c7,0,12.9,2.5,13.7,2.8l0.1,0c0.1,0,6.2,2.7,13.2,2.7c7.1,0,13.2-2.7,13.3-2.7c0.3-0.1,6.4-2.8,13.7-2.8c7.3,0,13.5,2.7,13.7,2.8
			l0.3,0.1c1.3,0.5,6.8,2.6,13,2.6c6.7,0,12.6-2.4,13.2-2.7l0.1,0c0.3-0.1,6.4-2.8,13.7-2.8c7,0,12.9,2.5,13.7,2.8l0.1,0
			c0.1,0,6.2,2.7,13.2,2.7c6.7,0,12.6-2.4,13.2-2.7l0.1,0c0.3-0.1,6.4-2.8,13.7-2.8c7.3,0,13.5,2.7,13.7,2.8l0,0
			c0.5,0.2,6.5,2.7,13.2,2.7c7.1,0,13.2-2.7,13.3-2.7c0.3-0.1,6.4-2.8,13.7-2.8c7,0,12.9,2.5,13.7,2.8l0.1,0c0.1,0,6.2,2.7,13.2,2.7
			c6.7,0,12.6-2.4,13.2-2.7l0.1,0c0.3-0.1,6.4-2.8,13.7-2.8c7.3,0,13.5,2.7,13.7,2.8l0.3,0.1c1.3,0.5,6.8,2.6,13,2.6
			c7.1,0,13.2-2.7,13.3-2.7c0.3-0.1,6.4-2.8,13.7-2.8c7,0,12.9,2.5,13.7,2.8l0.1,0c0.1,0,6.2,2.7,13.2,2.7c7.1,0,13.2-2.7,13.3-2.7
			c0.3-0.1,6.4-2.8,13.7-2.8c7.3,0,13.5,2.7,13.7,2.8l0.3,0.1c1.3,0.5,6.8,2.6,13,2.6c6.7,0,12.6-2.4,13.2-2.7l0.1,0
			c0.3-0.1,6.4-2.8,13.7-2.8c7,0,12.9,2.5,13.7,2.8l0.1,0c0.1,0,6.2,2.7,13.2,2.7c7.1,0,13.2-2.7,13.3-2.7c0.3-0.1,6.4-2.8,13.7-2.8
			c7.3,0,13.5,2.7,13.7,2.8l0.3,0.1c1.3,0.5,6.8,2.6,12.9,2.6c7.1,0,13.2-2.7,13.3-2.7c0.3-0.1,6.4-2.8,13.7-2.8
			c7,0,12.9,2.5,13.7,2.8l0.1,0c0.1,0,6.2,2.7,13.2,2.7c7.1,0,13.2-2.7,13.3-2.7c0.3-0.1,6.4-2.8,13.7-2.8c7.3,0,13.5,2.7,13.7,2.8
			l-0.5,1c-0.1,0-6.2-2.7-13.2-2.7c-7.1,0-13.2,2.7-13.3,2.7C836.8,112.3,830.6,115,823.3,115z"/>
	</g>
	<g>
		<path class="st1" d="M823.3,121.5c-7.3,0-13.5-2.7-13.7-2.8c-0.1,0-6.2-2.7-13.3-2.7c-6.7,0-12.6,2.4-13.2,2.7l-0.1,0
			c-0.3,0.1-6.4,2.8-13.7,2.8c-7.3,0-13.5-2.7-13.7-2.8l-0.3-0.1c-1.4-0.6-6.8-2.6-12.9-2.6c-6.7,0-12.6,2.4-13.2,2.7l-0.1,0
			c-0.3,0.1-6.4,2.8-13.7,2.8c-7.3,0-13.5-2.7-13.7-2.8c-0.1,0-6.2-2.7-13.3-2.7c-6.6,0-12.4,2.4-13.2,2.7l-0.1,0
			c-0.3,0.1-6.4,2.8-13.7,2.8c-7.3,0-13.5-2.7-13.7-2.8l-0.3-0.1c-1.4-0.6-6.8-2.6-12.9-2.6c-6.7,0-12.6,2.4-13.2,2.7l-0.1,0
			c-0.3,0.1-6.4,2.8-13.7,2.8c-7.3,0-13.5-2.7-13.7-2.8c-0.1,0-6.2-2.7-13.3-2.7c-7.1,0-13.2,2.7-13.3,2.7
			c-0.3,0.1-6.4,2.8-13.7,2.8c-7.3,0-13.5-2.7-13.7-2.8l-0.3-0.1c-1.4-0.6-6.8-2.6-12.9-2.6c-6.6,0-12.4,2.4-13.2,2.7l-0.1,0
			c-0.3,0.1-6.4,2.8-13.7,2.8c-7.3,0-13.5-2.7-13.7-2.8c-0.1,0-6.2-2.7-13.3-2.7c-6.7,0-12.6,2.4-13.2,2.7l-0.1,0
			c-0.3,0.1-6.4,2.8-13.7,2.8c-7.3,0-13.5-2.7-13.7-2.8l-0.6-0.3c-1.7-0.7-6.9-2.5-12.6-2.5c-6.6,0-12.4,2.4-13.2,2.7l-0.1,0
			c-0.3,0.1-6.4,2.8-13.7,2.8c-7.3,0-13.5-2.7-13.7-2.8c-0.1,0-6.2-2.7-13.3-2.7c-6.6,0-12.4,2.4-13.2,2.7l-0.1,0
			c-0.3,0.1-6.4,2.8-13.7,2.8c-7.3,0-13.5-2.7-13.7-2.8l-0.3-0.1c-1.4-0.6-6.8-2.6-12.9-2.6c-6.7,0-12.6,2.4-13.2,2.7l-0.1,0
			c-0.3,0.1-6.4,2.8-13.7,2.8c-7.3,0-13.5-2.7-13.7-2.8c-0.1,0-6.2-2.7-13.3-2.7c-6.7,0-12.6,2.4-13.2,2.7l-0.1,0
			c-0.3,0.1-6.4,2.8-13.7,2.8c-7.3,0-13.5-2.7-13.7-2.8l-0.3-0.1c-1.4-0.6-6.8-2.6-12.9-2.6c-6.7,0-12.6,2.4-13.2,2.7l-0.1,0
			c-0.3,0.1-6.4,2.8-13.7,2.8c-7.3,0-13.5-2.7-13.7-2.8c-0.1,0-6.2-2.7-13.3-2.7c-6.6,0-12.4,2.4-13.2,2.7l-0.1,0
			c-0.3,0.1-6.4,2.8-13.7,2.8c-7.3,0-13.5-2.7-13.7-2.8l-0.3-0.1c-1.4-0.6-6.8-2.6-12.9-2.6c-6.6,0-12.4,2.4-13.2,2.7l-0.1,0
			c-0.3,0.1-6.4,2.8-13.7,2.8c-7.3,0-13.5-2.7-13.7-2.8c-0.1,0-6.2-2.7-13.3-2.7c-6.6,0-12.4,2.4-13.2,2.7l-0.1,0
			c-0.3,0.1-6.4,2.8-13.7,2.8c-7.3,0-13.5-2.7-13.7-2.8l0.5-1c0.1,0,6.2,2.7,13.2,2.7c6.6,0,12.4-2.4,13.2-2.7l0.1,0
			c0.3-0.1,6.4-2.8,13.7-2.8c7.3,0,13.5,2.7,13.7,2.8c0.1,0,6.2,2.7,13.3,2.7c6.6,0,12.4-2.4,13.2-2.7l0.1,0
			c0.3-0.1,6.4-2.8,13.7-2.8c7.3,0,13.5,2.7,13.7,2.8l0.3,0.1c1.4,0.6,6.8,2.6,12.9,2.6c6.6,0,12.4-2.4,13.2-2.7l0.1,0
			c0.3-0.1,6.4-2.8,13.7-2.8c7.3,0,13.5,2.7,13.7,2.8c0.1,0,6.2,2.7,13.3,2.7c6.7,0,12.6-2.4,13.2-2.7l0.1,0
			c0.3-0.1,6.4-2.8,13.7-2.8c7.3,0,13.5,2.7,13.7,2.8l0.3,0.1c1.4,0.6,6.8,2.6,12.9,2.6c6.7,0,12.6-2.4,13.2-2.7l0.1,0
			c0.3-0.1,6.4-2.8,13.7-2.8c7.3,0,13.5,2.7,13.7,2.8c0.1,0,6.2,2.7,13.3,2.7c6.7,0,12.6-2.4,13.2-2.7l0.1,0
			c0.3-0.1,6.4-2.8,13.7-2.8c7.3,0,13.5,2.7,13.7,2.8l0.3,0.1c1.4,0.6,6.8,2.6,12.9,2.6c6.6,0,12.4-2.4,13.2-2.7l0.1,0
			c0.3-0.1,6.4-2.8,13.7-2.8c7.3,0,13.5,2.7,13.7,2.8c0.1,0,6.2,2.7,13.3,2.7c6.6,0,12.4-2.4,13.2-2.7l0.1,0
			c0.3-0.1,6.4-2.8,13.7-2.8c7.3,0,13.5,2.7,13.7,2.8l0.6,0.3c1.7,0.7,6.9,2.5,12.6,2.5c6.7,0,12.6-2.4,13.2-2.7l0.1,0
			c0.3-0.1,6.4-2.8,13.7-2.8c7.3,0,13.5,2.7,13.7,2.8c0.1,0,6.2,2.7,13.3,2.7c6.6,0,12.4-2.4,13.2-2.7l0.1,0
			c0.3-0.1,6.4-2.8,13.7-2.8c7.3,0,13.5,2.7,13.7,2.8l0.3,0.1c1.4,0.6,6.8,2.6,12.9,2.6c7.1,0,13.2-2.7,13.3-2.7
			c0.3-0.1,6.4-2.8,13.7-2.8c7.3,0,13.5,2.7,13.7,2.8c0.1,0,6.2,2.7,13.3,2.7c6.7,0,12.6-2.4,13.2-2.7l0.1,0
			c0.3-0.1,6.4-2.8,13.7-2.8c7.3,0,13.5,2.7,13.7,2.8l0.3,0.1c1.4,0.6,6.8,2.6,12.9,2.6c6.6,0,12.4-2.4,13.2-2.7l0.1,0
			c0.3-0.1,6.4-2.8,13.7-2.8c7.3,0,13.5,2.7,13.7,2.8c0.1,0,6.2,2.7,13.3,2.7c6.7,0,12.6-2.4,13.2-2.7l0.1,0
			c0.3-0.1,6.4-2.8,13.7-2.8c7.3,0,13.5,2.7,13.7,2.8l0.3,0.1c1.4,0.6,6.8,2.6,12.9,2.6c6.7,0,12.6-2.4,13.2-2.7l0.1,0
			c0.3-0.1,6.4-2.8,13.7-2.8c7.3,0,13.5,2.7,13.7,2.8c0.1,0,6.2,2.7,13.3,2.7c6.7,0,12.6-2.4,13.2-2.7l0.1,0
			c0.3-0.1,6.4-2.8,13.7-2.8c7.3,0,13.5,2.7,13.7,2.8l-0.5,1c-0.1,0-6.2-2.7-13.2-2.7c-6.7,0-12.6,2.4-13.2,2.7l-0.1,0
			C836.8,118.7,830.6,121.5,823.3,121.5z"/>
	</g>
</g>
</svg>
